<?xml version="1.0" encoding="UTF-8"?>
<svg version="1.1" xmlns="http://www.w3.org/2000/svg" width="1562" height="587">
<path d="M0 0 C0.91942383 0.00757324 1.83884766 0.01514648 2.78613281 0.02294922 C9.67218852 0.19003913 15.45245356 1.08378669 21.5625 4.4375 C22.34496094 4.85 23.12742187 5.2625 23.93359375 5.6875 C32.78980796 10.94447707 38.4440224 19.17092541 42.5625 28.4375 C44.70018528 25.8417393 46.67402034 23.26482335 48.5 20.4375 C50.62477736 17.34691475 52.81858834 14.98997596 55.5625 12.4375 C56.04203125 11.9528125 56.5215625 11.468125 57.015625 10.96875 C67.50823526 0.98548975 80.81980558 -0.04095054 94.52734375 0.16015625 C106.49274374 0.60694157 117.67545186 5.99751159 125.875 14.6875 C137.62448138 28.83435031 137.73652036 45.53501848 137.66357422 63.12304688 C137.66161019 64.45968578 137.66002937 65.7963253 137.65879822 67.13296509 C137.65270336 71.47409776 137.63547396 75.81515421 137.6171875 80.15625 C137.6113878 81.65786222 137.60562146 83.15947456 137.59988785 84.66108704 C137.57528472 90.90145066 137.54784354 97.14178994 137.51254082 103.38210297 C137.46213877 112.30217175 137.42887133 121.22192981 137.41925228 130.14213896 C137.41111905 136.43293068 137.384019 142.72346619 137.34264576 149.0141263 C137.31845265 152.76614834 137.30258154 156.51777547 137.30691147 160.2698822 C137.31121184 164.4427585 137.27632477 168.61440892 137.23779297 172.78710938 C137.24484756 174.03074249 137.25190216 175.27437561 137.25917053 176.55569458 C137.2424379 177.68824677 137.22570526 178.82079895 137.20846558 179.9876709 C137.20236928 181.46645847 137.20236928 181.46645847 137.19614983 182.97512054 C136.5625 185.4375 136.5625 185.4375 134.26017952 187.25484467 C130.62091886 188.8502866 127.24073372 188.84874033 123.33984375 188.80078125 C122.16609947 188.80152901 122.16609947 188.80152901 120.96864319 188.80229187 C119.32045949 188.79995901 117.67227172 188.79027705 116.02416992 188.77368164 C113.50472113 188.75004429 110.98632876 188.75313205 108.46679688 188.75976562 C106.86197287 188.75418967 105.25715332 188.74708031 103.65234375 188.73828125 C102.90121811 188.73919266 102.15009247 188.74010406 101.37620544 188.74104309 C97.65676467 188.69070455 94.65777669 188.63676277 91.5625 186.4375 C90.3500425 184.01258499 90.42986844 182.46355391 90.41773987 179.75331116 C90.40739212 178.2711058 90.40739212 178.2711058 90.39683533 176.75895691 C90.39291527 175.12655815 90.39291527 175.12655815 90.38891602 173.46118164 C90.382229 172.31788391 90.37554199 171.17458618 90.36865234 169.99664307 C90.35457269 167.505754 90.342688 165.0148518 90.33270454 162.52394295 C90.31631774 158.57633381 90.29307717 154.62882081 90.26780701 150.68125916 C90.19665192 139.45414295 90.1370492 128.22697941 90.08569336 116.99975586 C90.05726705 110.80180202 90.02181209 104.60392621 89.97903961 98.40605444 C89.95678105 95.1299329 89.93937035 91.85389699 89.92859077 88.57771492 C89.91636001 84.91115604 89.89217463 81.24484732 89.86547852 77.57836914 C89.86488937 76.50832138 89.86430023 75.43827362 89.86369324 74.33580017 C89.79638546 60.40088072 89.79638546 60.40088072 83.5625 48.4375 C78.79460554 44.76988888 73.56558265 44.88055617 67.76171875 45.01953125 C61.83735188 45.79353278 58.41735566 48.63277558 54.25 52.6875 C48.61102252 61.87694478 48.41540995 72.09157782 48.40478516 82.55761719 C48.39970444 83.65597397 48.39462372 84.75433075 48.38938904 85.88597107 C48.37872021 88.26165734 48.37008648 90.63735345 48.36326981 93.01305389 C48.35145092 96.76984367 48.33199392 100.52652005 48.31015015 104.28326416 C48.24860779 114.96110873 48.19412173 125.63892384 48.16113281 136.31689453 C48.1408482 142.85432128 48.1049957 149.39156513 48.06037521 155.92887115 C48.04618159 158.42159795 48.03748524 160.91436218 48.03432083 163.40712738 C48.02943743 166.88329968 48.00634918 170.35890332 47.97900391 173.83496094 C47.98351311 175.3872364 47.98351311 175.3872364 47.9881134 176.97087097 C47.97147392 178.38808189 47.97147392 178.38808189 47.95449829 179.83392334 C47.95118814 180.65536709 47.947878 181.47681084 47.94446754 182.32314682 C47.46708163 184.96568135 46.6728396 185.81981445 44.5625 187.4375 C40.93078585 188.64807138 37.57202365 188.61873388 33.7890625 188.640625 C33.02830414 188.64632507 32.26754578 188.65202515 31.48373413 188.65789795 C29.87491238 188.66733748 28.26607138 188.67387778 26.65722656 188.67773438 C24.20343085 188.68743701 21.75047411 188.7184678 19.296875 188.75 C17.73177579 188.75653085 16.16667061 188.761781 14.6015625 188.765625 C13.87119781 188.7779718 13.14083313 188.7903186 12.38833618 188.80303955 C7.93572113 188.78369193 5.09839562 188.191459 1.5625 185.4375 C0.3439047 183.00030939 0.4324733 181.43326705 0.42446899 178.70861816 C0.41901566 177.71062195 0.41356232 176.71262573 0.40794373 175.68438721 C0.4069014 174.58519958 0.40585907 173.48601196 0.40478516 172.35351562 C0.39970444 171.19885803 0.39462372 170.04420044 0.38938904 168.85455322 C0.37866535 166.33910386 0.37005306 163.82364484 0.36326981 161.30818176 C0.35150136 157.32304741 0.33233257 153.33799146 0.31015015 149.35290527 C0.24826084 138.01916419 0.19432993 126.68542656 0.16113281 115.3515625 C0.14272563 109.09462659 0.11370786 102.8378313 0.0731281 96.5809989 C0.05214781 93.27301162 0.03830545 89.96523813 0.03432083 86.65718079 C0.02939403 82.95679297 0.00618701 79.2569227 -0.02099609 75.55664062 C-0.01798996 74.47364685 -0.01498383 73.39065308 -0.0118866 72.27484131 C-0.11144201 63.11574322 -1.29521382 54.62416041 -7.8359375 47.77734375 C-12.1472909 44.17052859 -17.03472644 43.97174366 -22.4375 44.4375 C-27.97629117 45.79048716 -31.90664932 47.82777828 -35.4375 52.4375 C-38.591467 58.90526341 -40.55346082 65.14449398 -40.57553101 72.37097168 C-40.58098434 73.33824692 -40.58643768 74.30552216 -40.59205627 75.30210876 C-40.59361977 76.87636375 -40.59361977 76.87636375 -40.59521484 78.48242188 C-40.60029556 79.59678116 -40.60537628 80.71114044 -40.61061096 81.85926819 C-40.62130184 84.27645586 -40.62992703 86.69365336 -40.63673019 89.1108551 C-40.64852693 92.93524337 -40.6679804 96.75951912 -40.68984985 100.5838623 C-40.75145146 111.45642642 -40.80580899 122.32897001 -40.83886719 133.20166016 C-40.85918018 139.85349924 -40.89506245 146.50514813 -40.93962479 153.15687561 C-40.95380241 155.69260728 -40.96251118 158.22837557 -40.96567917 160.7641449 C-40.9705756 164.30717748 -40.99370037 167.84965743 -41.02099609 171.39257812 C-41.01798996 172.44208145 -41.01498383 173.49158478 -41.0118866 174.57289124 C-41.11650501 183.69530356 -41.11650501 183.69530356 -44.4375 187.4375 C-48.14734926 188.67411642 -51.60048292 188.5998061 -55.46484375 188.60546875 C-56.25016983 188.60879715 -57.03549591 188.61212555 -57.84461975 188.61555481 C-59.50472427 188.62061463 -61.16483895 188.62296343 -62.82495117 188.62280273 C-65.36198713 188.62498879 -67.89858787 188.64315296 -70.43554688 188.66210938 C-72.04947768 188.66504359 -73.66341055 188.6670282 -75.27734375 188.66796875 C-76.0347435 188.67515427 -76.79214325 188.68233978 -77.57249451 188.68974304 C-84.33000215 188.66049225 -84.33000215 188.66049225 -87.4375 186.4375 C-88.91911442 183.47427117 -88.57378125 180.8124531 -88.58467102 177.50430298 C-88.59018605 176.42178995 -88.59018605 176.42178995 -88.5958125 175.31740797 C-88.60687037 172.88689118 -88.6106967 170.45641711 -88.61450195 168.02587891 C-88.62076493 166.28825239 -88.62741158 164.55062723 -88.63441467 162.81300354 C-88.65183772 158.08367005 -88.66237959 153.35434668 -88.6706202 148.62498903 C-88.67576668 145.67241902 -88.68184252 142.71985217 -88.68813133 139.76728439 C-88.70718546 130.53553259 -88.72141717 121.30378882 -88.7297433 112.07202113 C-88.73952315 101.40371202 -88.76586121 90.73560998 -88.80624419 80.06737387 C-88.83636408 71.82869621 -88.85120817 63.59007805 -88.85452431 55.35134637 C-88.85687917 50.42712691 -88.86589617 45.50312862 -88.89098549 40.57896805 C-88.91419971 35.94800358 -88.9185264 31.31740695 -88.90822411 26.68639946 C-88.90772704 24.985205 -88.91409761 23.28399283 -88.92778015 21.58285332 C-88.94539752 19.26301188 -88.93844446 16.94450519 -88.92524719 14.62466431 C-88.92763555 13.32569025 -88.9300239 12.02671619 -88.93248463 10.68837929 C-88.4375 7.4375 -88.4375 7.4375 -86.63797283 5.01965904 C-83.37676336 2.67482116 -80.17857467 2.88382499 -76.3125 2.94140625 C-75.52858887 2.93995102 -74.74467773 2.93849579 -73.93701172 2.93699646 C-72.28283972 2.93865335 -70.62865198 2.95019128 -68.97460938 2.97094727 C-66.44594694 2.99990327 -63.91938195 2.99155299 -61.390625 2.97851562 C-59.78123983 2.98475347 -58.17186127 2.99314478 -56.5625 3.00390625 C-55.43110596 2.99950279 -55.43110596 2.99950279 -54.27685547 2.99501038 C-51.16916948 3.05072278 -48.77801914 3.27094319 -45.96777344 4.64550781 C-43.94506555 7.01415426 -43.89966212 8.44898848 -43.828125 11.54296875 C-43.79589844 12.52587891 -43.76367188 13.50878906 -43.73046875 14.52148438 C-43.71628906 15.54564453 -43.70210937 16.56980469 -43.6875 17.625 C-43.65785156 18.66076172 -43.62820313 19.69652344 -43.59765625 20.76367188 C-43.52692755 23.32169312 -43.47424743 25.87880158 -43.4375 28.4375 C-43.07398438 27.72464844 -42.71046875 27.01179688 -42.3359375 26.27734375 C-36.07460575 14.34870404 -28.94286622 6.13038636 -15.73046875 1.76171875 C-10.44994212 0.26890333 -5.46666339 -0.06347213 0 0 Z " fill="#1C1C1A" transform="translate(755.4375,226.5625)"/>
<path d="M0 0 C10.4804865 8.7788577 15.27652947 19.56198083 17 33 C17.43353557 38.6195558 17.42081991 44.252438 17.41069031 49.88565636 C17.406139 52.64143111 17.42041262 55.39658807 17.43908691 58.15229797 C17.48169375 64.98748802 17.49309113 71.82265949 17.50531006 78.65795898 C17.51689564 84.46078156 17.54059979 90.26331672 17.58000183 96.06601906 C17.59343932 98.76188907 17.58942779 101.45735448 17.58459473 104.15324402 C17.62009082 115.22381262 18.01370509 125.47831993 24.5 134.9375 C25.0878125 135.81277344 25.675625 136.68804687 26.28125 137.58984375 C27.38232451 139.13385051 28.50807108 140.66073094 29.6640625 142.1640625 C31.37570731 144.51632291 31.85814859 146.09204603 32 149 C30.05645541 152.84320269 27.72221787 155.42532849 24.5 158.25 C23.17935547 159.40822266 23.17935547 159.40822266 21.83203125 160.58984375 C17.27866924 164.46491184 12.66104674 168.25541099 8 172 C6.69289063 173.08861328 6.69289063 173.08861328 5.359375 174.19921875 C2.42434555 176.4393654 0.69358098 177 -3 177 C-12.26139699 172.27077601 -18.2130993 163.31209374 -24 155 C-24.886875 155.969375 -25.77375 156.93875 -26.6875 157.9375 C-41.55799701 172.71805449 -59.14804584 178.42169987 -79.78149414 178.36865234 C-93.28423402 178.0385645 -105.22076799 174.17877671 -115.27734375 164.8984375 C-126.44070406 153.13221416 -129.50258467 138.8319407 -129.35131836 123.02539062 C-128.88339394 106.76053363 -123.37151948 93.23514188 -111.921875 81.6953125 C-95.96605455 66.97670808 -74.73184229 63.44324225 -54 60.75 C-53.31996918 60.66096405 -52.63993835 60.5719281 -51.93930054 60.48019409 C-44.93243437 59.57448437 -38.06969192 58.747511 -31 59 C-31.05264095 55.85288822 -31.14787597 52.70836405 -31.25 49.5625 C-31.26417969 48.68400391 -31.27835938 47.80550781 -31.29296875 46.90039062 C-31.56326598 39.57533557 -33.14564801 33.19015811 -38.125 27.625 C-45.4720605 23.47231363 -52.74023383 21.91264824 -61 24 C-67.1475953 26.25262251 -72.72468606 29.09970521 -76 35 C-77.35418106 38.10282327 -78.61244743 41.21613333 -79.7890625 44.390625 C-81 47 -81 47 -84 49 C-87.07519531 48.98339844 -87.07519531 48.98339844 -90.828125 48.609375 C-91.82897125 48.51236298 -91.82897125 48.51236298 -92.85003662 48.41339111 C-94.26271003 48.27399964 -95.67484563 48.12906262 -97.08642578 47.97900391 C-99.22706985 47.75242705 -101.36889883 47.54469753 -103.51171875 47.33984375 C-109.85706568 46.70273994 -115.91998923 46.05163626 -122 44 C-123.76027955 41.79729724 -123.99018971 40.56114842 -124.0390625 37.765625 C-121.48414181 22.24327663 -112.79874163 8.67087953 -100.3125 -0.75 C-73.03391738 -18.65420903 -26.38914219 -21.17151712 0 0 Z M-72 98 C-78.97947513 107.28637532 -79.82339291 115.6371778 -79 127 C-77.42927601 133.71815683 -73.75239239 138.26294694 -68 142 C-62.04534529 143.9848849 -55.35446099 144.01898824 -49.625 141.3125 C-42.44378734 137.15032777 -37.38820858 130.60679977 -34.3125 123 C-33.89613281 121.989375 -33.47976563 120.97875 -33.05078125 119.9375 C-31.34073382 115.15699567 -30.87737534 110.89280632 -30.90234375 105.82421875 C-30.90556641 104.66728516 -30.90878906 103.51035156 -30.91210938 102.31835938 C-30.92048828 101.12017578 -30.92886719 99.92199219 -30.9375 98.6875 C-30.94201172 97.46998047 -30.94652344 96.25246094 -30.95117188 94.99804688 C-30.96293422 91.99864774 -30.97937174 88.99934911 -31 86 C-45.24150867 86 -61.09618781 88.0066032 -72 98 Z " fill="#1B1B1A" transform="translate(612,239)"/>
<path d="M0 0 C10.8796178 8.81844021 15.35687448 22.00058606 16.79607201 35.59340286 C17.10347833 39.22116956 17.14449411 42.82732709 17.1418457 46.46630859 C17.14532013 47.25949997 17.14879456 48.05269135 17.15237427 48.86991882 C17.15966911 50.575477 17.16504748 52.28104428 17.16866493 53.98661423 C17.17590742 56.69562976 17.19162939 59.40447208 17.21000671 62.11343384 C17.26212195 69.80997387 17.31042742 77.50641215 17.32592773 85.203125 C17.3360607 89.9275223 17.36550936 94.65147113 17.40724754 99.37569046 C17.41947685 101.16402405 17.42469372 102.95242114 17.42244911 104.74079514 C17.40810237 119.89642318 19.80040836 129.78923988 29.171875 141.95703125 C31.26421961 145.43980144 31.78644746 147.01993817 31 151 C28.8515625 153.546875 28.8515625 153.546875 26 156 C25.10023438 156.85078125 24.20046875 157.7015625 23.2734375 158.578125 C20.20263519 161.40889155 17.11186304 164.21454278 14 167 C13.50064941 167.45084961 13.00129883 167.90169922 12.48681641 168.36621094 C11.06849717 169.63585445 9.62830863 170.88093627 8.1875 172.125 C7.35605469 172.84945312 6.52460937 173.57390625 5.66796875 174.3203125 C2.34078511 176.41502548 -0.08107707 176.91052687 -4 177 C-6.15234375 175.8828125 -6.15234375 175.8828125 -7.9375 174.125 C-8.93136719 173.16013672 -8.93136719 173.16013672 -9.9453125 172.17578125 C-23 158.35171103 -23 158.35171103 -23 155 C-23.6290625 155.50789062 -24.258125 156.01578125 -24.90625 156.5390625 C-27.59642646 158.70254779 -30.29821903 160.851033 -33 163 C-34.00160156 163.81984375 -34.00160156 163.81984375 -35.0234375 164.65625 C-50.2836942 176.76143253 -68.06905835 179.41792162 -87 178 C-99.16114414 176.46385548 -109.47530997 171.65770522 -117.92578125 162.69140625 C-129.88595976 147.17245522 -130.7091819 129.02526274 -128.5703125 110.22265625 C-125.08857394 94.21095731 -115.41693912 82.64529804 -102 74 C-81.37518172 61.70986856 -54.57221017 59.60910104 -31 59 C-31.015451 43.12273874 -31.015451 43.12273874 -37.3125 29.0625 C-43.87586144 24.02550169 -50.13837244 22.5475925 -58.328125 23.1796875 C-64.90343644 24.30622687 -71.10341694 27.41495372 -75.34765625 32.66796875 C-77.51679932 36.27221028 -78.87592255 40.19711366 -80.09375 44.203125 C-81.38112901 46.75568683 -82.47660379 47.60333071 -85 49 C-87.83903554 49.01606191 -90.36408769 48.86885881 -93.16015625 48.5234375 C-93.94643906 48.4375235 -94.73272186 48.3516095 -95.54283142 48.26309204 C-97.20210189 48.07766591 -98.86044928 47.88381214 -100.51782227 47.68212891 C-103.05477325 47.37593258 -105.5937426 47.10209642 -108.13476562 46.83203125 C-109.74761645 46.64775407 -111.36025625 46.46161855 -112.97265625 46.2734375 C-114.11179222 46.15130386 -114.11179222 46.15130386 -115.27394104 46.02670288 C-118.22390163 45.65342088 -120.51629888 45.34200606 -122.97436523 43.60400391 C-124.76717747 40.80020091 -124.50022628 38.15142557 -124 35 C-119.87079997 19.03819988 -111.02984353 5.96412295 -97 -3 C-68.13105602 -19.16816701 -27.33403498 -19.31415319 0 0 Z M-72 98 C-78.01416346 104.33925338 -80.34900167 112.14101485 -80.21875 120.75390625 C-79.57439293 127.37007262 -77.41642283 133.98676328 -73 139 C-68.2540284 142.52369121 -63.45236223 143.72094582 -57.58203125 143.44140625 C-49.924058 142.13225197 -44.21445612 138.09645974 -39.4609375 132.08203125 C-29.79355025 118.30471199 -30.57296546 102.12219615 -31 86 C-45.41907756 86 -61.05505664 87.82358778 -72 98 Z " fill="#1B1B1A" transform="translate(1050,239)"/>
<path d="M0 0 C1.37526855 0.01135986 1.37526855 0.01135986 2.77832031 0.02294922 C16.09616846 0.34564911 26.59999399 4.99332403 35.875 14.5625 C46.5477463 27.2934101 48.08263692 44.8802178 48.04492188 60.85253906 C48.05228831 62.21933167 48.06088185 63.58611812 48.07058716 64.95289612 C48.0925094 68.61124026 48.09574993 72.26935744 48.09383965 75.92775822 C48.09371889 78.9926577 48.10232268 82.05751081 48.11061716 85.12239718 C48.1297345 92.34546517 48.13277343 99.56841758 48.12597656 106.79150391 C48.11930023 114.23721804 48.14236972 121.68244129 48.17929029 129.12805581 C48.20993756 135.5419691 48.2213541 141.9557237 48.21745348 148.36970878 C48.21538578 152.19214256 48.22087241 156.01419138 48.24534607 159.83655548 C48.26753702 163.41889786 48.26580106 167.0004316 48.24541855 170.58277702 C48.24036465 172.52512791 48.26006841 174.46749348 48.28042603 176.40974426 C48.26361282 178.13776527 48.26361282 178.13776527 48.24645996 179.9006958 C48.24717247 180.90348194 48.24788498 181.90626808 48.24861908 182.93944168 C47.625 185.4375 47.625 185.4375 45.32421112 187.26028061 C41.68380713 188.84798678 38.30183145 188.84872309 34.40234375 188.80078125 C33.22859947 188.80152901 33.22859947 188.80152901 32.03114319 188.80229187 C30.38295949 188.79995901 28.73477172 188.79027705 27.08666992 188.77368164 C24.56722113 188.75004429 22.04882876 188.75313205 19.52929688 188.75976562 C17.92447287 188.75418967 16.31965332 188.74708031 14.71484375 188.73828125 C13.96371811 188.73919266 13.21259247 188.74010406 12.43870544 188.74104309 C8.71926467 188.69070455 5.72027669 188.63676277 2.625 186.4375 C1.43623434 184.05996868 1.49266504 182.60334768 1.48023987 179.94985962 C1.47334137 179.00523865 1.46644287 178.06061768 1.45933533 177.08737183 C1.45672195 176.04743073 1.45410858 175.00748962 1.45141602 173.93603516 C1.444729 172.84311157 1.43804199 171.75018799 1.43115234 170.62414551 C1.41707315 168.24293775 1.40518831 165.86171627 1.39520454 163.48048782 C1.37881188 159.70482727 1.35557027 155.92926699 1.33030701 152.15365601 C1.25951397 141.41547506 1.19959724 130.67725503 1.14819336 119.93896484 C1.11668768 113.37487769 1.07494942 106.81089334 1.02799797 100.24689865 C1.01204609 97.75044154 0.99969333 95.25395862 0.99109077 92.75746536 C0.97883603 89.249166 0.95464075 85.74112561 0.92797852 82.23291016 C0.92738937 81.21321136 0.92680023 80.19351257 0.92619324 79.14291382 C0.8248431 68.99760742 0.65243055 55.38121624 -7.0625 47.7734375 C-11.46962788 44.59248633 -15.52801742 43.70033849 -20.921875 44.03125 C-27.02699283 45.04228862 -30.94636322 47.37205397 -34.625 52.375 C-41.63193586 63.96412824 -42.5181748 76.87132598 -42.53271484 90.05029297 C-42.53779556 91.07091324 -42.54287628 92.09153351 -42.54811096 93.14308167 C-42.55875221 95.34302814 -42.56739647 97.54298502 -42.57423019 99.74294662 C-42.58608388 103.22265931 -42.60554794 106.70225148 -42.62734985 110.18191528 C-42.68878641 120.06947867 -42.74316599 129.95702458 -42.77636719 139.84472656 C-42.79725817 145.90467213 -42.83250048 151.964389 -42.87712479 158.02420425 C-42.8913119 160.33271734 -42.90001331 162.64127078 -42.90317917 164.94982529 C-42.90806333 168.16715424 -42.93115159 171.38386916 -42.95849609 174.60107422 C-42.95548996 175.55797653 -42.95248383 176.51487885 -42.9493866 177.5007782 C-42.96047958 178.37538193 -42.97157257 179.24998566 -42.98300171 180.15109253 C-42.98631186 180.91094389 -42.989622 181.67079525 -42.99303246 182.45367241 C-43.48331462 185.00005444 -44.34886789 185.86021226 -46.375 187.4375 C-50.00671415 188.64807138 -53.36547635 188.61873388 -57.1484375 188.640625 C-57.90919586 188.64632507 -58.66995422 188.65202515 -59.45376587 188.65789795 C-61.06258762 188.66733748 -62.67142862 188.67387778 -64.28027344 188.67773438 C-66.73406915 188.68743701 -69.18702589 188.7184678 -71.640625 188.75 C-73.20572421 188.75653085 -74.77082939 188.761781 -76.3359375 188.765625 C-77.06630219 188.7779718 -77.79666687 188.7903186 -78.54916382 188.80303955 C-82.98794746 188.78375203 -85.89078554 188.25691412 -89.375 185.4375 C-90.53992144 181.94273567 -90.51276164 179.19407312 -90.52890015 175.50466919 C-90.53547353 174.44030886 -90.53547353 174.44030886 -90.5421797 173.35444629 C-90.55556106 170.9708326 -90.561745 168.58725588 -90.56787109 166.20361328 C-90.57577242 164.49701775 -90.58404139 162.79042389 -90.59265137 161.08383179 C-90.61886212 155.47517491 -90.63417538 149.86651058 -90.6484375 144.2578125 C-90.65379706 142.32783885 -90.65917457 140.39786525 -90.66456985 138.46789169 C-90.68619479 130.44187377 -90.70493297 122.41585787 -90.71619225 114.38981819 C-90.7324424 102.88152297 -90.76565041 91.37356478 -90.82259309 79.86539662 C-90.86125729 71.77615287 -90.8808206 63.68699941 -90.88611281 55.59766567 C-90.88977034 50.76447233 -90.90183452 45.93163854 -90.93421555 41.09854507 C-90.96423529 36.55286641 -90.97062995 32.00776601 -90.95883179 27.46200943 C-90.95861056 25.79347582 -90.96695642 24.12491584 -90.98448563 22.4564743 C-91.00711799 20.17838298 -90.99891273 17.90239931 -90.98300171 15.6242981 C-90.98631186 14.34966768 -90.989622 13.07503727 -90.99303246 11.76178169 C-90.20570125 7.52687349 -88.73967719 6.04880223 -85.375 3.4375 C-82.51230231 2.9493685 -80.25818555 2.75637437 -77.40625 2.80859375 C-76.2693573 2.80497581 -76.2693573 2.80497581 -75.10949707 2.80128479 C-73.51256052 2.80226104 -71.91558921 2.81560191 -70.31884766 2.84057617 C-67.88196235 2.87490193 -65.44870391 2.8612239 -63.01171875 2.84179688 C-61.45571382 2.84869576 -59.89971819 2.85836855 -58.34375 2.87109375 C-57.61965942 2.86613388 -56.89556885 2.86117401 -56.14953613 2.85606384 C-52.65029415 2.93705528 -50.46778547 3.38377967 -47.42114258 5.14770508 C-44.99995393 7.85720613 -44.73053197 9.0536669 -44.66796875 12.640625 C-44.63896484 13.6203125 -44.60996094 14.6 -44.58007812 15.609375 C-44.57427734 16.62515625 -44.56847656 17.6409375 -44.5625 18.6875 C-44.53736328 19.71875 -44.51222656 20.75 -44.48632812 21.8125 C-44.42748438 24.35454989 -44.39118493 26.89487916 -44.375 29.4375 C-43.95089844 28.6640625 -43.52679687 27.890625 -43.08984375 27.09375 C-35.62560441 13.83857333 -28.02419577 5.3321763 -13.06665039 1.04174805 C-8.70114756 0.06173721 -4.45999873 -0.05201405 0 0 Z " fill="#1C1C1A" transform="translate(1514.375,226.5625)"/>
<path d="M0 0 C21.07536667 16.65957556 30.78204156 40.80023395 34.05859375 66.89453125 C35.62669272 98.77344266 33.16174383 129.9194241 11.45703125 155.265625 C-1.59227853 169.56885868 -17.62201895 178.1112996 -37.05859375 179.26953125 C-57.38207144 179.97986999 -74.63937658 174.98432867 -90.31640625 161.44921875 C-110.40719521 141.89657593 -117.69237351 113.8356971 -118.22460938 86.54248047 C-118.46346179 58.83958169 -113.25043664 30.00887749 -93.94140625 8.89453125 C-93.3896875 8.26289063 -92.83796875 7.63125 -92.26953125 6.98046875 C-69.42731688 -17.71087726 -26.53131376 -18.991206 0 0 Z M-57.56640625 30.45703125 C-72.84675335 48.90813471 -69.27241688 82.54611358 -67.25390625 104.64453125 C-65.80249432 118.19333114 -62.69986683 131.01771392 -52.19140625 140.33203125 C-46.4893779 143.07339104 -40.69923798 143.77767502 -34.62890625 141.76953125 C-27.42019813 138.54153544 -23.17932189 131.86981151 -20.03125 124.87109375 C-15.54651738 112.74654023 -15.59316557 99.54276118 -15.62573242 86.79223633 C-15.62888101 84.22758945 -15.60537685 81.6641139 -15.58007812 79.09960938 C-15.46646993 51.78528257 -15.46646993 51.78528257 -27.3984375 28.265625 C-32.77675666 23.48640974 -37.93867307 23.41627608 -44.88671875 23.62109375 C-50.6866397 24.14026826 -53.6497325 26.38401968 -57.56640625 30.45703125 Z " fill="#1B1B1A" transform="translate(1365.94140625,239.10546875)"/>
<path d="M0 0 C0.97445572 -0.00426498 1.94891144 -0.00852997 2.95289612 -0.01292419 C4.56206909 -0.01224442 4.56206909 -0.01224442 6.20375061 -0.0115509 C7.89408165 -0.01658882 7.89408165 -0.01658882 9.61856079 -0.02172852 C13.35928944 -0.03126025 17.09997345 -0.0331827 20.8407135 -0.03425598 C23.43141702 -0.03746687 26.02212036 -0.04083081 28.61282349 -0.04434204 C34.04938759 -0.05033878 39.48593385 -0.05222407 44.92250061 -0.05158997 C51.20955455 -0.05098904 57.49652274 -0.06154327 63.78355497 -0.07733363 C69.82771292 -0.09197411 75.87182421 -0.09557834 81.91600227 -0.09498024 C84.48969943 -0.09616356 87.06339716 -0.10060488 89.63708305 -0.10831261 C93.23099335 -0.11806813 96.82468077 -0.11525203 100.41859436 -0.10920715 C102.02473099 -0.11763641 102.02473099 -0.11763641 103.66331482 -0.12623596 C104.64059036 -0.12204147 105.61786591 -0.11784698 106.62475586 -0.11352539 C107.47481673 -0.11407016 108.32487761 -0.11461493 109.2006979 -0.1151762 C111.37586975 0.13371277 111.37586975 0.13371277 114.37586975 2.13371277 C115.96243977 6.89342282 115.68506768 11.71021035 115.75086975 16.69621277 C115.80694397 18.26725769 115.80694397 18.26725769 115.864151 19.87004089 C115.99566635 31.62605193 110.61063873 39.25629918 103.93836975 48.50871277 C102.68948967 50.26639585 101.44079703 52.02421213 100.192276 53.78215027 C99.55821838 54.66999207 98.92416077 55.55783386 98.27088928 56.47257996 C95.27892461 60.67412787 92.32872429 64.90463508 89.37586975 69.13371277 C88.2094218 70.80053251 87.04275464 72.46719888 85.87586975 74.13371277 C85.29836975 74.95871277 84.72086975 75.78371277 84.12586975 76.63371277 C82.37586975 79.13371277 80.62586975 81.63371277 78.87586975 84.13371277 C78.29748352 84.96000183 77.71909729 85.78629089 77.1231842 86.63761902 C75.96555688 88.29132612 74.80784314 89.94497273 73.65003967 91.59855652 C70.5943312 95.96299248 67.54047303 100.32870873 64.489151 104.69621277 C63.85299866 105.60629089 63.21684631 106.51636902 62.56141663 107.45402527 C61.34211317 109.19843021 60.12333569 110.94320296 58.90516663 112.68840027 C58.35538147 113.47472839 57.80559631 114.26105652 57.239151 115.07121277 C56.51659119 116.10568542 56.51659119 116.10568542 55.7794342 117.16105652 C54.34442432 119.17790812 52.86926605 121.15981325 51.37586975 123.13371277 C52.5875885 123.15949402 53.79930725 123.18527527 55.04774475 123.21183777 C74.71398525 123.80622344 100.49885449 126.03580203 116.051651 139.59465027 C120.06236772 144.25607324 118.63982 151.97992696 118.67103577 157.81217957 C118.68257875 159.31650684 118.70306739 160.82079243 118.7325592 162.32487488 C118.77520319 164.49971816 118.79139673 166.67334729 118.801651 168.84855652 C118.82352478 170.79943176 118.82352478 170.79943176 118.84584045 172.78971863 C118.37586975 176.13371277 118.37586975 176.13371277 116.55921936 178.59391785 C114.37586975 180.13371277 114.37586975 180.13371277 111.01649475 180.05558777 C107.44277593 179.15065468 104.44714906 177.97072801 101.12586975 176.38371277 C71.79475035 163.18410906 37.5197384 162.9643235 7.56336975 174.19621277 C3.99290779 175.56459007 0.5364058 177.05190113 -2.87413025 178.78996277 C-6.1061982 180.3692687 -8.07313809 180.68608933 -11.62413025 180.13371277 C-14.23983481 177.68705034 -14.61638119 176.20406348 -15.01231384 172.60954285 C-15.03206086 171.20757814 -15.03444747 169.80529747 -15.02256775 168.40324402 C-15.02543793 167.6533873 -15.02830811 166.90353058 -15.03126526 166.13095093 C-15.03330373 164.54486842 -15.02778898 162.95876064 -15.01524353 161.37272644 C-14.99929819 158.97150273 -15.01503964 156.57199107 -15.0342865 154.17082214 C-15.05194415 143.20277761 -14.22820992 134.96284363 -7.43663025 126.00871277 C-6.53751195 124.79794316 -5.64053305 123.5855831 -4.745224 122.37199402 C-4.0024823 121.37160095 -4.0024823 121.37160095 -3.24473572 120.35099792 C-0.0817084 116.02339713 2.94935381 111.60276863 6.00086975 107.19621277 C7.38874945 105.19741685 8.77677227 103.19872029 10.16493225 101.20011902 C11.21148987 99.69215759 11.21148987 99.69215759 12.27919006 98.1537323 C15.64115229 93.31122266 19.00869684 88.47259995 22.37586975 83.63371277 C23.69751785 81.7339965 25.01913231 79.83425683 26.3407135 77.93449402 C26.99926331 76.98783875 27.65781311 76.04118347 28.33631897 75.06584167 C30.45522387 72.01963053 32.57378172 68.97317824 34.692276 65.92668152 C35.40319397 64.90445496 36.11411194 63.88222839 36.84657288 62.82902527 C38.19305071 60.89291335 39.53941404 58.95672179 40.88563538 57.02043152 C41.50245178 56.13355652 42.11926819 55.24668152 42.754776 54.33293152 C43.28659485 53.56811462 43.8184137 52.80329773 44.36634827 52.01530457 C47.3636196 47.71730996 50.3700665 43.4257433 53.37586975 39.13371277 C52.67287247 39.13228775 51.96987518 39.13086273 51.24557495 39.12939453 C44.60983648 39.11154077 37.97472129 39.06985801 31.3392992 39.0016222 C27.92814207 38.96737808 24.5174315 38.94224646 21.10609436 38.93815613 C17.18129125 38.93304635 13.25743302 38.88791361 9.332901 38.84074402 C8.11190201 38.84467667 6.89090302 38.84860931 5.63290405 38.85266113 C-2.74450474 38.70841367 -2.74450474 38.70841367 -6.89903259 35.99406433 C-8.95154538 32.59083198 -9.2302244 30.62008715 -9.182724 26.66105652 C-9.17563416 25.43193542 -9.16854431 24.20281433 -9.16123962 22.93644714 C-9.12836853 21.6609198 -9.09549744 20.38539246 -9.06163025 19.07121277 C-9.05582947 17.79181824 -9.05002869 16.51242371 -9.04405212 15.19425964 C-8.90479353 4.58275485 -8.90479353 4.58275485 -6.62413025 1.13371277 C-4.21112633 -0.07278919 -2.69576777 0.0053169 0 0 Z " fill="#1B1B1A" transform="translate(1114.6241302490234,229.8662872314453)"/>
<path d="M0 0 C6.29129478 1.17581031 12.42485592 2.57792093 18.55493164 4.41430664 C19.34482483 4.64707809 20.13471802 4.87984955 20.94854736 5.11967468 C23.52039314 5.87882107 26.09030632 6.64428338 28.66015625 7.41015625 C30.45942133 7.94328156 32.25877482 8.47610856 34.05821228 9.00865173 C37.80844546 10.1195834 41.55775491 11.23356337 45.30639648 12.34985352 C50.12027523 13.78316723 54.93616703 15.2095766 59.75272465 16.63385868 C63.45846908 17.73032619 67.16326604 18.82996575 70.86776543 19.93063164 C72.64459358 20.45822273 74.4216894 20.98491321 76.19905281 21.51069832 C78.6701976 22.24232612 81.14006662 22.97810631 83.60961914 23.71508789 C84.34772324 23.93276825 85.08582733 24.15044861 85.84629822 24.37472534 C90.88565029 25.88565029 90.88565029 25.88565029 92 27 C92.09632045 28.7589343 92.1218751 30.52177159 92.12025452 32.28334045 C92.12231651 34.00188988 92.12231651 34.00188988 92.12442017 35.75515747 C92.11902725 37.65731522 92.11902725 37.65731522 92.11352539 39.59790039 C92.11324352 40.93793231 92.11340125 42.27796439 92.1139679 43.61799622 C92.11425587 47.26659438 92.1083592 50.91515995 92.10139394 54.56375051 C92.09516034 58.37277516 92.0945566 62.1818005 92.09336853 65.99082947 C92.09025523 73.20857754 92.08204186 80.42631054 92.07201904 87.64405197 C92.06085786 95.85915257 92.05534744 104.07425388 92.05032361 112.28936017 C92.03985925 129.19291551 92.02225983 146.09645616 92 163 C71.04010609 156.22499776 50.08965347 149.42548424 29.19238281 142.45922852 C25.62151542 141.26969914 22.0490436 140.08506372 18.4765625 138.90039062 C16.18740344 138.13831083 13.89833679 137.37595338 11.609375 136.61328125 C10.54942322 136.26235916 9.48947144 135.91143707 8.3973999 135.54988098 C7.43577942 135.22831528 6.47415894 134.90674957 5.48339844 134.57543945 C4.63791443 134.29408646 3.79243042 134.01273346 2.92132568 133.72285461 C1 133 1 133 0 132 C-0.09622036 130.29174312 -0.12187628 128.57947886 -0.12025452 126.86851501 C-0.12162918 125.75647202 -0.12300385 124.64442902 -0.12442017 123.49868774 C-0.12082489 122.26798553 -0.11722961 121.03728333 -0.11352539 119.76928711 C-0.11367142 118.48166977 -0.11381744 117.19405243 -0.1139679 115.86741638 C-0.11425586 112.3262524 -0.10835936 108.78512201 -0.10139394 105.24396586 C-0.09516017 101.54705012 -0.09455658 97.85013369 -0.09336853 94.1532135 C-0.09025528 87.14796101 -0.08204199 80.14272405 -0.07201904 73.13747841 C-0.0608577 65.16421124 -0.0553474 57.19094335 -0.05032361 49.21767032 C-0.03985937 32.81177111 -0.02226005 16.40588753 0 0 Z " fill="#FF9E33" transform="translate(229,233)"/>
<path d="M0 0 C6.29129478 1.17581031 12.42485592 2.57792093 18.55493164 4.41430664 C19.34482483 4.64707809 20.13471802 4.87984955 20.94854736 5.11967468 C23.52039314 5.87882107 26.09030632 6.64428338 28.66015625 7.41015625 C30.45942133 7.94328156 32.25877482 8.47610856 34.05821228 9.00865173 C37.80844546 10.1195834 41.55775491 11.23356337 45.30639648 12.34985352 C50.12027523 13.78316723 54.93616703 15.2095766 59.75272465 16.63385868 C63.45846908 17.73032619 67.16326604 18.82996575 70.86776543 19.93063164 C72.64459358 20.45822273 74.4216894 20.98491321 76.19905281 21.51069832 C78.6701976 22.24232612 81.14006662 22.97810631 83.60961914 23.71508789 C84.34772324 23.93276825 85.08582733 24.15044861 85.84629822 24.37472534 C90.88565029 25.88565029 90.88565029 25.88565029 92 27 C92.09632045 28.7589343 92.1218751 30.52177159 92.12025452 32.28334045 C92.12231651 34.00188988 92.12231651 34.00188988 92.12442017 35.75515747 C92.11902725 37.65731522 92.11902725 37.65731522 92.11352539 39.59790039 C92.11324352 40.93793231 92.11340125 42.27796439 92.1139679 43.61799622 C92.11425587 47.26659438 92.1083592 50.91515995 92.10139394 54.56375051 C92.09516034 58.37277516 92.0945566 62.1818005 92.09336853 65.99082947 C92.09025523 73.20857754 92.08204186 80.42631054 92.07201904 87.64405197 C92.06085786 95.85915257 92.05534744 104.07425388 92.05032361 112.28936017 C92.03985925 129.19291551 92.02225983 146.09645616 92 163 C71.04010609 156.22499776 50.08965347 149.42548424 29.19238281 142.45922852 C25.62151542 141.26969914 22.0490436 140.08506372 18.4765625 138.90039062 C16.18740344 138.13831083 13.89833679 137.37595338 11.609375 136.61328125 C10.54942322 136.26235916 9.48947144 135.91143707 8.3973999 135.54988098 C7.43577942 135.22831528 6.47415894 134.90674957 5.48339844 134.57543945 C4.63791443 134.29408646 3.79243042 134.01273346 2.92132568 133.72285461 C1 133 1 133 0 132 C-0.09622036 130.29174312 -0.12187628 128.57947886 -0.12025452 126.86851501 C-0.12162918 125.75647202 -0.12300385 124.64442902 -0.12442017 123.49868774 C-0.12082489 122.26798553 -0.11722961 121.03728333 -0.11352539 119.76928711 C-0.11367142 118.48166977 -0.11381744 117.19405243 -0.1139679 115.86741638 C-0.11425586 112.3262524 -0.10835936 108.78512201 -0.10139394 105.24396586 C-0.09516017 101.54705012 -0.09455658 97.85013369 -0.09336853 94.1532135 C-0.09025528 87.14796101 -0.08204199 80.14272405 -0.07201904 73.13747841 C-0.0608577 65.16421124 -0.0553474 57.19094335 -0.05032361 49.21767032 C-0.03985937 32.81177111 -0.02226005 16.40588753 0 0 Z " fill="#FF9E34" transform="translate(572,41)"/>
<path d="M0 0 C0 43.56 0 87.12 0 132 C-6.17940056 134.47176022 -12.25560741 136.84923351 -18.55493164 138.93261719 C-19.34482483 139.1965477 -20.13471802 139.46047821 -20.94854736 139.73240662 C-23.51812067 140.59015021 -26.08909085 141.44361544 -28.66015625 142.296875 C-30.45958133 142.8962854 -32.25893215 143.49591879 -34.05821228 144.09576416 C-37.80699056 145.34483835 -41.55642711 146.59190872 -45.30639648 147.83740234 C-50.12288335 149.43719697 -54.93802124 151.04100706 -59.75272465 152.64616013 C-63.45733289 153.88093919 -67.1624588 155.1141583 -70.86776543 156.3468399 C-72.64498345 156.93818308 -74.42207947 157.52989309 -76.19905281 158.12197113 C-78.66874136 158.94448226 -81.13907642 159.7650196 -83.60961914 160.58496094 C-84.34772324 160.8311467 -85.08582733 161.07733246 -85.84629822 161.33097839 C-90.88551436 163 -90.88551436 163 -92 163 C-92 118.12 -92 73.24 -92 27 C-86.80282556 25.05105958 -81.71495287 23.2316623 -76.40991211 21.67163086 C-75.69822372 21.45982681 -74.98653534 21.24802277 -74.25328064 21.02980042 C-71.92876951 20.33874903 -69.60308255 19.65175088 -67.27734375 18.96484375 C-65.64637751 18.48091738 -64.01548372 17.99674679 -62.38465881 17.51234436 C-58.10889942 16.24307698 -53.83211341 14.97730337 -49.55511475 13.71221924 C-46.07146186 12.68118405 -42.58852521 11.64774226 -39.10562801 10.61415768 C-31.89138887 8.47327051 -24.67667083 6.33399578 -17.46069336 4.19897461 C-16.806474 4.00516205 -16.15225464 3.81134949 -15.47821045 3.61166382 C-13.65287104 3.0719649 -11.82645113 2.53592459 -10 2 C-8.7529982 1.62464615 -7.5059964 1.2492923 -6.22120667 0.86256409 C-3 0 -3 0 0 0 Z " fill="#FF9F33" transform="translate(550,41)"/>
<path d="M0 0 C6.29129478 1.17581031 12.42485592 2.57792093 18.55493164 4.41430664 C19.34482483 4.64707809 20.13471802 4.87984955 20.94854736 5.11967468 C23.52039314 5.87882107 26.09030632 6.64428338 28.66015625 7.41015625 C30.45942133 7.94328156 32.25877482 8.47610856 34.05821228 9.00865173 C37.80844546 10.1195834 41.55775491 11.23356337 45.30639648 12.34985352 C50.12027523 13.78316723 54.93616703 15.2095766 59.75272465 16.63385868 C63.45846908 17.73032619 67.16326604 18.82996575 70.86776543 19.93063164 C72.64459358 20.45822273 74.4216894 20.98491321 76.19905281 21.51069832 C78.6701976 22.24232612 81.14006662 22.97810631 83.60961914 23.71508789 C84.34772324 23.93276825 85.08582733 24.15044861 85.84629822 24.37472534 C90.88565029 25.88565029 90.88565029 25.88565029 92 27 C92.09629597 28.74626524 92.12187539 30.49645905 92.12025452 32.24537659 C92.12231651 33.95130478 92.12231651 33.95130478 92.12442017 35.69169617 C92.11902725 37.5798278 92.11902725 37.5798278 92.11352539 39.50610352 C92.11367142 40.82298157 92.11381744 42.13985962 92.1139679 43.49664307 C92.11425587 47.11838268 92.10835924 50.74008946 92.10139394 54.36182141 C92.0951603 58.14281884 92.09455659 61.92381695 92.09336853 65.70481873 C92.09025524 72.8694429 92.08204189 80.0340519 92.07201904 87.19866937 C92.06085782 95.35331162 92.05534743 103.50795457 92.05032361 111.66260254 C92.03985928 128.44174393 92.02225989 145.22087003 92 162 C86.55624855 161.38905288 81.69055204 160.08437596 76.51025391 158.33203125 C75.69153809 158.06039154 74.87282227 157.78875183 74.02929688 157.50888062 C71.34306592 156.61592598 68.65979885 155.71440922 65.9765625 154.8125 C64.10580813 154.18812002 62.23490538 153.56418446 60.36386108 152.94067383 C56.45404886 151.6363628 52.54560959 150.32804348 48.63818359 149.01660156 C43.61957568 147.33236377 38.59834531 145.65611394 33.57616615 143.9825592 C29.71849343 142.69648749 25.8618689 141.40729777 22.00559616 140.11703491 C20.15338663 139.49750538 18.30093132 138.87871014 16.44823074 138.26065063 C13.86892253 137.39944327 11.29096783 136.53430611 8.71337891 135.66796875 C7.94250946 135.41131439 7.17164001 135.15466003 6.37741089 134.89022827 C1.11448111 133.11448111 1.11448111 133.11448111 0 132 C-0.09622036 130.29174312 -0.12187628 128.57947886 -0.12025452 126.86851501 C-0.12162918 125.75647202 -0.12300385 124.64442902 -0.12442017 123.49868774 C-0.12082489 122.26798553 -0.11722961 121.03728333 -0.11352539 119.76928711 C-0.11367142 118.48166977 -0.11381744 117.19405243 -0.1139679 115.86741638 C-0.11425586 112.3262524 -0.10835936 108.78512201 -0.10139394 105.24396586 C-0.09516017 101.54705012 -0.09455658 97.85013369 -0.09336853 94.1532135 C-0.09025528 87.14796101 -0.08204199 80.14272405 -0.07201904 73.13747841 C-0.0608577 65.16421124 -0.0553474 57.19094335 -0.05032361 49.21767032 C-0.03985937 32.81177111 -0.02226005 16.40588753 0 0 Z " fill="#FF9F34" transform="translate(115,425)"/>
<path d="M0 0 C0 43.56 0 87.12 0 132 C-6.0726046 134.42904184 -12.04508817 136.78125883 -18.23193359 138.84082031 C-18.98774719 139.09499725 -19.74356079 139.34917419 -20.52227783 139.61105347 C-22.97996441 140.43653145 -25.43908665 141.25761984 -27.8984375 142.078125 C-29.62337068 142.65524839 -31.34827456 143.23245936 -33.07315063 143.80975342 C-36.66801612 145.01201163 -40.26368615 146.21182748 -43.85986328 147.41015625 C-48.46859828 148.94633309 -53.07451184 150.49079194 -57.67978477 152.03731155 C-61.23170641 153.22868702 -64.78542608 154.41462376 -68.33967972 155.59902191 C-70.03959144 156.16644563 -71.7388552 156.73581441 -73.43745041 157.30716705 C-75.80458858 158.1027319 -78.17413044 158.89068168 -80.54443359 159.67675781 C-81.24369965 159.91359283 -81.9429657 160.15042786 -82.66342163 160.3944397 C-85.99975439 161.49213885 -88.43761811 162 -92 162 C-92 117.45 -92 72.9 -92 27 C-86.80282556 25.05105958 -81.71495287 23.2316623 -76.40991211 21.67163086 C-75.69822372 21.45982681 -74.98653534 21.24802277 -74.25328064 21.02980042 C-71.92876951 20.33874903 -69.60308255 19.65175088 -67.27734375 18.96484375 C-65.64637751 18.48091738 -64.01548372 17.99674679 -62.38465881 17.51234436 C-58.10889942 16.24307698 -53.83211341 14.97730337 -49.55511475 13.71221924 C-46.07146186 12.68118405 -42.58852521 11.64774226 -39.10562801 10.61415768 C-31.89138887 8.47327051 -24.67667083 6.33399578 -17.46069336 4.19897461 C-16.806474 4.00516205 -16.15225464 3.81134949 -15.47821045 3.61166382 C-13.65287104 3.0719649 -11.82645113 2.53592459 -10 2 C-8.7529982 1.62464615 -7.5059964 1.2492923 -6.22120667 0.86256409 C-3 0 -3 0 0 0 Z " fill="#FF9F33" transform="translate(321,425)"/>
<path d="M0 0 C0.02344662 12.63336826 0.04107625 25.26673112 0.05181217 37.90011692 C0.05697177 43.76992641 0.06393898 49.63972072 0.07543945 55.50952148 C0.12415997 81.02414986 0.14967953 106.50632487 -1 132 C-8.84675396 135.26447392 -16.82009101 138.05810746 -24.87109375 140.7734375 C-26.20140206 141.22398794 -27.53164667 141.67472648 -28.86183167 142.12564087 C-31.64061992 143.06694571 -34.42003653 144.006363 -37.19995117 144.94433594 C-40.70313496 146.12645245 -44.20491521 147.31266128 -47.70623684 148.50028038 C-50.45412642 149.43191737 -53.20268374 150.36157189 -55.95143318 151.29066849 C-57.85159403 151.93320924 -59.75130031 152.57709379 -61.65098572 153.22103882 C-71.73015429 156.61871348 -81.85102367 159.79506011 -92 163 C-92 118.12 -92 73.24 -92 27 C-86.69954001 25.0123275 -81.49681087 23.16499268 -76.08691406 21.56396484 C-75.34114609 21.34080093 -74.59537811 21.11763702 -73.82701111 20.88771057 C-71.39068095 20.15941309 -68.95318478 19.43510782 -66.515625 18.7109375 C-64.81021683 18.20217486 -63.10487527 17.6931889 -61.39959717 17.18399048 C-57.83965829 16.12160388 -54.27918312 15.06104174 -50.71826172 14.00195312 C-46.15564039 12.64491338 -41.59399131 11.28464074 -37.03268814 9.92317772 C-32.67317621 8.62211501 -28.31316071 7.32274366 -23.953125 6.0234375 C-22.7083778 5.65223848 -22.7083778 5.65223848 -21.43848419 5.2735405 C-19.09110363 4.5738368 -16.74336525 3.87534773 -14.39550781 3.17724609 C-13.70245041 2.97048752 -13.00939301 2.76372894 -12.29533386 2.55070496 C-3.70448948 0 -3.70448948 0 0 0 Z " fill="#FF9F33" transform="translate(207,233)"/>
<path d="M0 0 C0.13401596 32.31846322 -0.05754495 64.62233735 -0.5 96.9375 C-0.51195782 97.81117092 -0.52391563 98.68484184 -0.53623581 99.58498764 C-0.68468659 110.39008229 -0.83933493 121.19508016 -1 132 C-9.08873939 135.37585323 -17.32979569 138.22963344 -25.6328125 141.02734375 C-27.03756966 141.50270632 -28.44226195 141.9782606 -29.84689331 142.45399475 C-32.77950516 143.44657578 -35.71274515 144.43726991 -38.64648438 145.42651367 C-42.35845474 146.67827285 -46.0690405 147.93407669 -49.77917671 149.19126034 C-52.67880319 150.17340601 -55.57906599 151.15366161 -58.47951889 152.13336372 C-59.8452588 152.59484781 -61.21083864 153.05680598 -62.57623672 153.51930046 C-63.22212627 153.73794825 -63.86801582 153.95659603 -64.53347778 154.18186951 C-65.37110248 154.46568812 -65.37110248 154.46568812 -66.22564888 154.75524044 C-74.78930965 157.62757904 -83.37010445 160.30315764 -92 163 C-92 118.12 -92 73.24 -92 27 C-87.01659861 25.13122448 -82.23373059 23.39676999 -77.16357422 21.88696289 C-76.53140488 21.69787857 -75.89923553 21.50879425 -75.24790955 21.3139801 C-73.18429932 20.69749548 -71.11952594 20.08501327 -69.0546875 19.47265625 C-67.59743708 19.03834489 -66.14025448 18.60380589 -64.68313599 18.16905212 C-61.63594234 17.26048913 -58.58821573 16.35374578 -55.54003906 15.44848633 C-51.67345252 14.3001586 -47.80779404 13.14874639 -43.94248772 11.99611759 C-40.20937502 10.88305299 -36.47580008 9.77154269 -32.7421875 8.66015625 C-32.04972805 8.45390184 -31.3572686 8.24764744 -30.64382553 8.0351429 C-26.09827137 6.68192972 -21.55002371 5.33812791 -17 4 C-16.34277199 3.80544598 -15.68554398 3.61089195 -15.00839996 3.41044235 C-13.07470071 2.83903051 -11.13918294 2.27378394 -9.20361328 1.70874023 C-8.08109161 1.37954086 -6.95856995 1.05034149 -5.80203247 0.71116638 C-3 0 -3 0 0 0 Z " fill="#FF9F33" transform="translate(779,41)"/>
<path d="M0 0 C5.22639052 1.16142012 10.21050244 2.2753077 15.30395508 3.78417969 C16.45998734 4.12503601 17.61601959 4.46589233 18.80708313 4.81707764 C20.64474495 5.36395233 20.64474495 5.36395233 22.51953125 5.921875 C23.82631552 6.30846103 25.13317653 6.69478774 26.44010925 7.08087158 C29.87070945 8.09511371 33.30020672 9.11303678 36.72949219 10.13171387 C40.15163757 11.1474878 43.57490558 12.1594635 46.99804688 13.171875 C53.4926125 15.09332145 59.98499176 17.02203125 66.47662354 18.95336914 C69.77418227 19.93292008 73.07314293 20.90758505 76.37255859 21.88085938 C78.21064948 22.42565473 80.04870576 22.97056688 81.88671875 23.515625 C82.71242874 23.75786804 83.53813873 24.00011108 84.38887024 24.24969482 C89.88631241 25.88631241 89.88631241 25.88631241 91 27 C91.09632045 28.7589343 91.1218751 30.52177159 91.12025452 32.28334045 C91.12231651 34.00188988 91.12231651 34.00188988 91.12442017 35.75515747 C91.11902725 37.65731522 91.11902725 37.65731522 91.11352539 39.59790039 C91.11324352 40.93793231 91.11340125 42.27796439 91.1139679 43.61799622 C91.11425587 47.26659438 91.1083592 50.91515995 91.10139394 54.56375051 C91.09516034 58.37277516 91.0945566 62.1818005 91.09336853 65.99082947 C91.09025523 73.20857754 91.08204186 80.42631054 91.07201904 87.64405197 C91.06085786 95.85915257 91.05534744 104.07425388 91.05032361 112.28936017 C91.03985925 129.19291551 91.02225983 146.09645616 91 163 C60.58816765 153.22915365 30.30605033 143.10201678 0 133 C0 89.11 0 45.22 0 0 Z " fill="#FF9F34" transform="translate(344,41)"/>
<path d="M0 0 C5.91296303 1.31399179 11.65665825 2.68998237 17.44140625 4.41430664 C18.23115341 4.64707809 19.02090057 4.87984955 19.83457947 5.11967468 C22.41146958 5.88010651 24.98702304 6.64495321 27.5625 7.41015625 C29.36322975 7.94316211 31.16401184 8.47599115 32.96484375 9.00865173 C36.72081099 10.12038575 40.47611291 11.23433231 44.23095703 12.34985352 C49.05299219 13.78221512 53.87669907 15.20885314 58.70091248 16.63385868 C62.41091351 17.73043938 66.1200059 18.83006716 69.8288269 19.93063164 C71.60842459 20.45829687 73.38831162 20.98498722 75.16848755 21.51069832 C77.64451129 22.24238441 80.1192798 22.97816784 82.59375 23.71508789 C83.33342514 23.93276825 84.07310028 24.15044861 84.83518982 24.37472534 C89.88574158 25.88574158 89.88574158 25.88574158 91 27 C91.09632045 28.7589343 91.1218751 30.52177159 91.12025452 32.28334045 C91.12231651 34.00188988 91.12231651 34.00188988 91.12442017 35.75515747 C91.11902725 37.65731522 91.11902725 37.65731522 91.11352539 39.59790039 C91.11324352 40.93793231 91.11340125 42.27796439 91.1139679 43.61799622 C91.11425587 47.26659438 91.1083592 50.91515995 91.10139394 54.56375051 C91.09516034 58.37277516 91.0945566 62.1818005 91.09336853 65.99082947 C91.09025523 73.20857754 91.08204186 80.42631054 91.07201904 87.64405197 C91.06085786 95.85915257 91.05534744 104.07425388 91.05032361 112.28936017 C91.03985925 129.19291551 91.02225983 146.09645616 91 163 C60.58816765 153.22915365 30.30605033 143.10201678 0 133 C0 89.11 0 45.22 0 0 Z " fill="#FF9E33" transform="translate(1,233)"/>
<path d="M0 0 C0 43.56 0 87.12 0 132 C-6.50539727 134.60215891 -12.91775306 137.06554591 -19.5546875 139.25 C-20.90362595 139.6982312 -20.90362595 139.6982312 -22.27981567 140.15551758 C-25.14393796 141.10653864 -28.00941049 142.05341033 -30.875 143 C-32.69280342 143.6025778 -34.5105122 144.20544119 -36.328125 144.80859375 C-42.55183381 146.87314819 -48.77593304 148.93652555 -55 151 C-66.88 154.96 -78.76 158.92 -91 163 C-91 118.12 -91 73.24 -91 27 C-86.26850201 24.97221515 -82.04407312 23.30959652 -77.16943359 21.88696289 C-76.52605042 21.69787857 -75.88266724 21.50879425 -75.2197876 21.3139801 C-73.11384069 20.696126 -71.00616881 20.08439242 -68.8984375 19.47265625 C-67.41488962 19.03852772 -65.93146274 18.60398554 -64.44815063 18.16905212 C-60.55149409 17.0275525 -56.65338025 15.89111468 -52.75488281 14.75592041 C-47.29069602 13.16383418 -41.82851506 11.56487775 -36.36611938 9.96665955 C-33.46492652 9.11782887 -30.56319601 8.27087856 -27.66098022 7.42555237 C-26.30959593 7.03130019 -24.95824622 6.63692942 -23.60693359 6.24243164 C-22.96276175 6.05468705 -22.3185899 5.86694246 -21.65489769 5.67350864 C-16.27104199 4.09693001 -10.92047206 2.42157101 -5.57778931 0.71116638 C-3 0 -3 0 0 0 Z " fill="#FF9F33" transform="translate(435,233)"/>
<path d="M0 0 C1.12148438 -0.02578125 2.24296875 -0.0515625 3.3984375 -0.078125 C7.15336175 0.3037317 8.68226414 0.89248718 11.625 3.25 C12.75584433 5.95547823 13.5559384 8.34721765 14.2734375 11.16015625 C14.60109856 12.34800217 14.60109856 12.34800217 14.93537903 13.55984497 C15.64216702 16.13942396 16.32134341 18.72539182 17 21.3125 C17.47921348 23.08484154 17.96009706 24.85673233 18.44262695 26.62817383 C19.40374117 30.1683376 20.35390815 33.71114791 21.29443359 37.25683594 C22.46669141 41.67131846 23.67250397 46.07563858 24.89453125 50.4765625 C25.53449318 52.79669884 26.17386686 55.11699755 26.8125 57.4375 C27.10366699 58.49138916 27.39483398 59.54527832 27.69482422 60.63110352 C27.95408691 61.59201904 28.21334961 62.55293457 28.48046875 63.54296875 C28.81534302 64.77309692 28.81534302 64.77309692 29.15698242 66.02807617 C29.625 68.25 29.625 68.25 29.625 72.25 C30.285 72.25 30.945 72.25 31.625 72.25 C31.7633728 70.69696167 31.7633728 70.69696167 31.90454102 69.11254883 C32.70548877 62.75345371 34.4944538 56.62801698 36.15234375 50.44921875 C36.50514663 49.12270431 36.8576449 47.79610883 37.20985413 46.46943665 C37.94529053 43.70419468 38.68453448 40.94000699 39.42651367 38.17651367 C40.37658823 34.63664559 41.31676912 31.09423634 42.25412655 27.55098248 C42.97844046 24.81757762 43.70805438 22.08560928 44.43927193 19.35404396 C44.95745069 17.41439254 45.47106085 15.47352248 45.98460388 13.53263855 C46.30155716 12.35744156 46.61851044 11.18224457 46.94506836 9.97143555 C47.22184921 8.93633347 47.49863007 7.90123138 47.78379822 6.83476257 C48.625 4.25 48.625 4.25 50.625 1.25 C53.53586669 0.2797111 55.52723685 0.08532153 58.5625 0.0625 C59.41714844 0.04832031 60.27179688 0.03414063 61.15234375 0.01953125 C63.90333712 0.27594295 65.31489486 0.74464834 67.625 2.25 C68.75508118 4.37667847 68.75508118 4.37667847 69.6340332 7.03076172 C69.96464752 8.02219177 70.29526184 9.01362183 70.63589478 10.03509521 C72.34347896 15.58528384 73.94161781 21.15860045 75.48046875 26.7578125 C76.01064771 28.66288187 76.54083014 30.56795029 77.07122517 32.47295952 C77.98860153 35.77263897 78.9001317 39.0739331 79.8125 42.375 C80.91406128 46.35730911 82.01703681 50.33921385 83.12483215 54.3197937 C83.81142694 56.78839337 84.49485242 59.25787707 85.17485046 61.728302 C85.4821962 62.83390472 85.78954193 63.93950745 86.10620117 65.07861328 C86.37615402 66.05581329 86.64610687 67.03301331 86.92424011 68.03982544 C87.42298666 70.20142902 87.42298666 70.20142902 88.625 71.25 C88.85637161 70.41728073 89.08774323 69.58456146 89.3261261 68.72660828 C91.50793493 60.88102641 93.69929619 53.0381902 95.90144062 45.19829082 C97.0332589 41.16758392 98.16135112 37.13591084 99.28100586 33.10180664 C100.36159082 29.20899894 101.45186047 25.31902468 102.54891014 21.43082619 C102.96582593 19.94664169 103.37923756 18.46146826 103.7890873 16.975317 C104.36358393 14.89447641 104.95042032 12.81749522 105.5402832 10.7409668 C105.87115433 9.55738083 106.20202545 8.37379486 106.54292297 7.15434265 C107.58959852 4.34501915 108.25002739 3.01431657 110.625 1.25 C115.76894129 -0.4646471 120.77985141 -0.65374625 125.6875 1.75 C126.326875 2.245 126.96625 2.74 127.625 3.25 C127.03125105 11.22128111 125.07809511 18.62059702 122.94140625 26.30078125 C122.56570051 27.67094936 122.19060229 29.04128419 121.81607056 30.41177368 C120.82004896 34.04937936 119.81562496 37.68460758 118.80865097 41.31919479 C117.77149763 45.06490493 116.73918498 48.81194928 115.70629883 52.55883789 C114.47861159 57.01158083 113.25021298 61.46412059 112.01829529 65.91569519 C109.75519526 74.10005592 107.53821389 82.29428849 105.3828125 90.5078125 C104.7250204 92.98575682 104.0655945 95.4632579 103.40524292 97.94052124 C103.01305536 99.42723174 102.62746722 100.91570031 102.24880981 102.40591431 C101.73900011 104.40972931 101.2065374 106.40610284 100.66796875 108.40234375 C100.38977295 109.47476318 100.11157715 110.54718262 99.82495117 111.65209961 C98.32161653 114.90682675 96.84855266 115.78390524 93.625 117.25 C90.87109375 117.61328125 90.87109375 117.61328125 88.0625 117.5625 C87.13308594 117.55863281 86.20367188 117.55476562 85.24609375 117.55078125 C82.40541384 117.22480159 80.98129283 116.85926074 78.625 115.25 C77.4152832 112.73803711 77.4152832 112.73803711 76.36328125 109.33984375 C76.16140701 108.69651596 75.95953278 108.05318817 75.75154114 107.3903656 C75.01895337 105.01675831 74.31925851 102.63510409 73.625 100.25 C73.19426178 98.77361053 73.19426178 98.77361053 72.75482178 97.26739502 C70.39372939 89.12890866 68.10000737 80.97191094 65.8125 72.8125 C65.11295762 70.32738177 64.41309042 67.84235495 63.71289062 65.35742188 C62.01318117 59.32266324 60.31748334 53.28678899 58.625 47.25 C56.06545023 54.5751042 54.07006701 61.97517349 52.15625 69.4921875 C51.66497694 71.3946475 51.17369172 73.29710446 50.68167877 75.19937325 C49.47869099 79.8526849 48.28147069 84.50743289 47.09521484 89.16503906 C46.42523561 91.79431596 45.74980412 94.42207341 45.0682373 97.04837036 C44.42870612 99.51354556 43.79732379 101.98085213 43.17492676 104.45040894 C42.88452515 105.56231598 42.59412354 106.67422302 42.29492188 107.81982422 C42.04415894 108.79861542 41.793396 109.77740662 41.53503418 110.78585815 C40.29568628 114.14169808 38.79167955 115.66666023 35.625 117.25 C33.69376789 117.44968426 31.7530311 117.56278815 29.8125 117.625 C28.77480469 117.67398438 27.73710938 117.72296875 26.66796875 117.7734375 C22.51375949 117.05884951 21.31770998 115.45653933 18.625 112.25 C17.5713413 109.66527976 16.76874584 107.3308034 16.05712891 104.65942383 C15.8433107 103.91041809 15.62949249 103.16141235 15.40919495 102.38970947 C14.70741621 99.91631977 14.02944953 97.43706537 13.3515625 94.95703125 C12.86122177 93.2100276 12.36944501 91.46342645 11.87631226 89.71720886 C10.57865541 85.10672754 9.30122709 80.49087229 8.027771 75.87365723 C6.75505189 71.27357116 5.46249738 66.67907269 4.171875 62.08398438 C1.95764878 54.19067783 -0.23068669 46.29053962 -2.40290451 38.38557625 C-3.63914212 33.8936 -4.89309894 29.40746416 -6.17455864 24.92817783 C-7.03444502 21.91695864 -7.87863832 18.90132464 -8.7265625 15.88671875 C-9.03258392 14.84079056 -9.33860535 13.79486237 -9.65390015 12.71723938 C-9.91587189 11.7737413 -10.17784363 10.83024323 -10.44775391 9.8581543 C-10.67749908 9.0559697 -10.90724426 8.2537851 -11.14395142 7.42729187 C-11.4334729 4.69897926 -10.94090199 3.4810583 -9.375 1.25 C-6.07164934 0.14888311 -3.47667863 0.04773472 0 0 Z " fill="#1B1B1A" transform="translate(486.375,469.75)"/>
<path d="M0 0 C0.78503906 0.00773437 1.57007813 0.01546875 2.37890625 0.0234375 C3.55646484 0.01183594 3.55646484 0.01183594 4.7578125 0 C10.62559838 0.02012963 10.62559838 0.02012963 12.87890625 2.2734375 C13.15737915 4.18435669 13.15737915 4.18435669 13.19775391 6.53955078 C13.2176236 7.42031281 13.23749329 8.30107483 13.25796509 9.20852661 C13.2695163 10.16065033 13.2810675 11.11277405 13.29296875 12.09375 C13.3123349 13.06754608 13.33170105 14.04134216 13.35165405 15.04464722 C13.41155183 18.16248753 13.45787596 21.28036456 13.50390625 24.3984375 C13.54207664 26.50913091 13.58112781 28.61980858 13.62109375 30.73046875 C13.71726152 35.91131894 13.80227889 41.09226347 13.87890625 46.2734375 C14.40564941 45.79640381 14.93239258 45.31937012 15.47509766 44.82788086 C16.17812012 44.20018799 16.88114258 43.57249512 17.60546875 42.92578125 C18.29721191 42.30437256 18.98895508 41.68296387 19.70166016 41.04272461 C27.90476083 34.3766705 37.72100635 34.34232428 47.82617188 35.03710938 C54.70899818 35.82951849 60.40242112 39.19791368 65.87890625 43.2734375 C66.68585938 43.86898437 67.4928125 44.46453125 68.32421875 45.078125 C79.41626532 54.60982251 83.5602817 70.74764667 84.71484375 84.7734375 C84.76898437 85.5984375 84.823125 86.4234375 84.87890625 87.2734375 C84.93304687 87.9953125 84.9871875 88.7171875 85.04296875 89.4609375 C85.7273179 107.37844244 81.1417854 126.86352034 68.87890625 140.2734375 C58.51380519 149.62995836 48.54954218 152.08451291 34.9453125 151.62109375 C25.99036051 151.04581592 19.65155748 146.81873054 12.87890625 141.2734375 C11.5495014 140.26822085 10.21717542 139.26682232 8.87890625 138.2734375 C8.61335937 138.98371094 8.3478125 139.69398438 8.07421875 140.42578125 C7.72101562 141.34488281 7.3678125 142.26398438 7.00390625 143.2109375 C6.65585937 144.12746094 6.3078125 145.04398438 5.94921875 145.98828125 C4.87890625 148.2734375 4.87890625 148.2734375 2.87890625 149.2734375 C-4.58776042 149.62899306 -4.58776042 149.62899306 -8.12109375 147.2734375 C-8.49582386 144.76840973 -8.49582386 144.76840973 -8.49531555 141.54162598 C-8.50232986 140.32171463 -8.50934418 139.10180328 -8.51657104 137.84492493 C-8.50914268 136.4858077 -8.50141151 135.12669209 -8.4934082 133.76757812 C-8.4958351 132.34197219 -8.49955343 130.91636795 -8.50447083 129.49076843 C-8.51389755 125.61268667 -8.50443962 121.73485651 -8.4911387 117.85679436 C-8.47984596 113.80447208 -8.48393001 109.75216259 -8.48588562 105.6998291 C-8.48676929 98.89375687 -8.47567305 92.0877841 -8.45727539 85.28173828 C-8.43610663 77.40529106 -8.43259744 69.52898961 -8.43883735 61.6525197 C-8.44452587 54.08556214 -8.43889141 46.51865607 -8.4276638 38.95170593 C-8.42301101 35.72685293 -8.4221469 32.50203136 -8.42424965 29.2771759 C-8.42612899 25.48181474 -8.41805613 21.68660259 -8.40218925 17.89127541 C-8.39793538 16.49564544 -8.39710323 15.10000038 -8.39987946 13.70436668 C-8.40308593 11.80465393 -8.39282284 9.90493244 -8.38179016 8.00524902 C-8.37973729 6.94041039 -8.37768442 5.87557175 -8.37556934 4.77846527 C-7.83925936 -0.50090704 -4.54228186 0.01558244 0 0 Z M24.69140625 57.3359375 C16.26910113 65.19675561 13.10499744 76.03854005 12.59765625 87.21484375 C12.2617204 100.08106963 11.97641022 114.98291789 20.87890625 125.2734375 C26.02119351 130.53366713 30.3554235 133.30754262 37.81640625 133.5859375 C44.3365252 133.40267972 48.03011927 131.3928076 52.50390625 126.7109375 C61.52934847 115.75289507 62.87189085 100.68736349 61.56640625 86.99609375 C60.15810652 75.41534332 57.52847251 65.05438903 49.19140625 56.5234375 C41.08668736 50.25144398 32.74266616 52.12629874 24.69140625 57.3359375 Z " fill="#1B1B1A" transform="translate(735.12109375,433.7265625)"/>
<path d="M0 0 C1.25671509 0.00845947 1.25671509 0.00845947 2.53881836 0.01708984 C14.03818769 0.24285256 23.46575048 3.72209836 32.078125 11.5390625 C43.9850951 23.95858429 47.48545781 40.11688963 47.953125 56.859375 C47.625 59.3125 47.625 59.3125 46.53312683 60.9445343 C43.65403223 63.00860184 41.2779458 62.67171918 37.7668457 62.65307617 C36.72743332 62.65373329 36.72743332 62.65373329 35.66702271 62.65440369 C33.37798832 62.65231465 31.08968758 62.62897926 28.80078125 62.60546875 C27.21323548 62.59987318 25.62568452 62.5956029 24.03813171 62.59260559 C19.86064337 62.58115368 15.68346817 62.55168373 11.50610352 62.51849365 C7.24304439 62.48780011 2.97993465 62.4741018 -1.28320312 62.45898438 C-9.64727908 62.42681417 -18.01110058 62.37561387 -26.375 62.3125 C-25.92915973 64.86344566 -25.47484671 67.41239619 -25.015625 69.9609375 C-24.8913916 70.67693115 -24.7671582 71.3929248 -24.63916016 72.13061523 C-23.10189235 80.57591983 -20.25570095 87.79060489 -13.25390625 93.12890625 C-7.33333638 96.858496 -1.34213271 98.3451074 5.625 97.3125 C14.35763954 94.97890389 19.13886158 89.196452 23.9375 81.875 C25.625 79.3125 25.625 79.3125 27.625 78.3125 C29.39850585 78.34962653 31.17085147 78.46483024 32.9375 78.625 C33.88238281 78.70363281 34.82726563 78.78226563 35.80078125 78.86328125 C38.94223848 79.36295979 42.30156173 79.98906173 44.625 82.3125 C45.85518906 90.5723408 40.90267049 96.11144958 36.3125 102.5625 C27.17214171 111.91542477 15.85511006 116.35150116 2.97192383 116.60546875 C-12.07934913 116.70650943 -22.78372798 114.58324736 -34.375 104.3125 C-42.49179085 96.07083545 -47.74089347 84.73002358 -49.375 73.3125 C-49.48457031 72.59835937 -49.59414062 71.88421875 -49.70703125 71.1484375 C-52.18222056 52.46900882 -49.11286284 33.43843926 -38.0625 17.9375 C-28.29694439 5.55270596 -15.66526927 -0.11046327 0 0 Z M-19.90234375 28.6953125 C-22.63861804 33.55818723 -25.375 39.6407415 -25.375 45.3125 C-9.205 45.3125 6.965 45.3125 23.625 45.3125 C23.625 36.43733525 21.56578426 29.35650564 15.3828125 22.78515625 C10.38250036 18.59600586 4.46951823 16.5108646 -2.05078125 16.875 C-9.79460132 18.33266025 -15.3806807 22.34574311 -19.90234375 28.6953125 Z " fill="#1B1B1A" transform="translate(1413.375,469.6875)"/>
<path d="M0 0 C11.02606311 7.36064213 16.05541258 16.92227583 20.078125 29.3046875 C20.325625 30.05234375 20.573125 30.8 20.828125 31.5703125 C22.19959384 36.56093521 22.30586085 41.59660522 22.390625 46.7421875 C22.41733276 47.8091687 22.41733276 47.8091687 22.44458008 48.89770508 C22.44140625 50.92578125 22.44140625 50.92578125 22.078125 54.3046875 C18.41482331 56.74688862 16.67701459 56.54741242 12.31176758 56.53173828 C11.28698555 56.53217636 11.28698555 56.53217636 10.24150085 56.53262329 C7.98508977 56.53123082 5.72900959 56.51567379 3.47265625 56.5 C1.90752849 56.49626957 0.34239839 56.49342274 -1.22273254 56.49142456 C-5.34095718 56.48379044 -9.45904061 56.4641439 -13.57720947 56.4420166 C-17.77996918 56.42155339 -21.98275171 56.41242183 -26.18554688 56.40234375 C-34.43105436 56.38089776 -42.67644711 56.34676453 -50.921875 56.3046875 C-50.65254478 58.66960747 -50.37081165 61.03197177 -50.08203125 63.39453125 C-50.00811157 64.05497437 -49.93419189 64.71541748 -49.85803223 65.39587402 C-48.91113718 72.96870789 -46.46313463 80.05483742 -40.73828125 85.30859375 C-34.39735904 89.74617 -27.7758591 92.46136516 -19.921875 91.3046875 C-10.80768321 88.48507967 -6.20778888 83.09015447 -1.25390625 75.1953125 C0.078125 73.3046875 0.078125 73.3046875 2.078125 72.3046875 C8.22372016 71.79255457 13.28077051 73.34501838 19.078125 75.3046875 C20.52050974 79.52088906 20.01250382 82.13951284 18.203125 86.0546875 C12.24040703 97.0056072 3.96593767 104.31182667 -7.609375 108.6171875 C-21.59974734 112.61210734 -37.57523088 111.97654455 -50.39453125 104.94921875 C-63.5055875 96.78490493 -69.95369257 85.01748697 -73.921875 70.3046875 C-78.03518237 51.54800591 -75.18163026 30.56069972 -64.921875 14.3046875 C-49.80344543 -5.80567637 -22.35101002 -12.96836678 0 0 Z M-43.3125 20.109375 C-47.55449038 25.89577935 -49.921875 32.17139407 -49.921875 39.3046875 C-33.751875 39.3046875 -17.581875 39.3046875 -0.921875 39.3046875 C-2.0109983 29.50257778 -3.56537258 23.00758762 -10.921875 16.3046875 C-16.3195074 12.04075856 -20.49913715 10.82286399 -27.3671875 10.99609375 C-33.85900578 11.78027363 -38.90085575 15.43465105 -43.3125 20.109375 Z " fill="#1B1B1A" transform="translate(690.921875,475.6953125)"/>
<path d="M0 0 C10.49777537 7.91967002 16.99629174 20.56355594 19.3984375 33.375 C19.87228635 36.82883158 20.29714048 40.27959869 20.625 43.75 C20.74617188 45.01457031 20.86734375 46.27914062 20.9921875 47.58203125 C20.75 50.9375 20.75 50.9375 19.16485596 53.11883545 C15.9241323 55.55947346 13.90481128 55.42062814 9.87011719 55.39160156 C8.84511612 55.39247772 8.84511612 55.39247772 7.79940796 55.39337158 C5.54804101 55.390592 3.29800968 55.35950908 1.046875 55.328125 C-0.516818 55.32066209 -2.08052037 55.31496939 -3.64422607 55.31097412 C-7.75441433 55.29572154 -11.86403471 55.2564436 -15.97399902 55.2121582 C-20.17008787 55.17119701 -24.36626873 55.15296133 -28.5625 55.1328125 C-36.7919269 55.08994842 -45.02089275 55.02170233 -53.25 54.9375 C-52.96248369 57.15583382 -52.66656856 59.37307999 -52.3671875 61.58984375 C-52.20331543 62.82468506 -52.03944336 64.05952637 -51.87060547 65.33178711 C-50.63279682 72.5234456 -48.19456747 78.52285041 -43.25 83.9375 C-37.29462758 87.96305233 -30.99171551 90.97709357 -23.6953125 90.44921875 C-16.03014478 88.84516608 -10.76669441 85.33966575 -6.42578125 78.87109375 C-5.44168781 77.25273411 -4.46939843 75.6272045 -3.5 74 C-2.25 71.9375 -2.25 71.9375 -0.25 70.9375 C5.83882327 70.43009806 11.04259631 71.82729136 16.75 73.9375 C17.75 74.9375 17.75 74.9375 17.96484375 77.66796875 C17.41147638 86.08921404 11.24505818 93.33785057 5.3125 98.9296875 C-7.71985803 109.14101681 -22.36033474 110.14263199 -38.25 108.9375 C-46.28020765 107.48047263 -52.89041803 103.97833145 -59.25 98.9375 C-59.85328125 98.48246094 -60.4565625 98.02742187 -61.078125 97.55859375 C-71.43210326 88.62712152 -76.43508662 72.78675987 -77.42138672 59.65576172 C-78.53354235 39.87047339 -75.00899646 22.01951523 -61.9375 6.5 C-45.95006037 -10.16372726 -19.27397925 -12.13006864 0 0 Z M-46.51953125 20.359375 C-50.14138318 25.75536208 -52.25 31.43935645 -52.25 37.9375 C-36.08 37.9375 -19.91 37.9375 -3.25 37.9375 C-4.27621733 28.70154401 -5.83360859 23.18490554 -11.5625 16.0625 C-16.96822627 11.78820481 -21.92867426 9.16766967 -28.9609375 9.56640625 C-36.59856998 10.80458899 -41.63019135 14.46484146 -46.51953125 20.359375 Z " fill="#1B1B1A" transform="translate(1027.25,477.0625)"/>
<path d="M0 0 C0.82814209 0.00563965 1.65628418 0.0112793 2.50952148 0.01708984 C14.43081471 0.25168324 24.67215894 3.05120712 33.72265625 11.12890625 C38.13129183 15.76218569 41.36160969 20.99821909 42.6875 27.3125 C41.9375 30.3125 41.9375 30.3125 39.6875 32.3125 C36.83072377 33.32931866 34.62768398 33.90150654 31.6875 34.3125 C31.00945312 34.45429688 30.33140625 34.59609375 29.6328125 34.7421875 C27.625 35 27.625 35 23.6875 34.3125 C21.58261124 32.2207122 19.96543737 30.01257621 18.27734375 27.57421875 C15.22280479 23.22881812 11.6447573 20.97430785 6.6875 19.3125 C-1.91159105 18.47436075 -8.70992296 18.80000699 -15.6875 24.125 C-17.81561799 26.98977421 -18.24244401 28.73964476 -18.3125 32.3125 C-17.16402923 36.07693197 -16.35752793 38.53662264 -13.1550293 40.91430664 C-9.77283649 42.5779516 -6.6571096 43.27452659 -2.95703125 43.99609375 C-2.25535324 44.13773453 -1.55367523 44.27937531 -0.83073425 44.42530823 C2.14632668 45.02594061 5.12756613 45.60449998 8.10864258 46.18481445 C34.93999169 51.44928672 34.93999169 51.44928672 43.06640625 63.328125 C47.87024102 72.3330994 48.95909375 82.06161264 46.5 91.94921875 C43.72712017 100.01456633 39.13309354 106.14296762 31.6875 110.3125 C16.02841311 117.8947947 -3.67486947 119.36865179 -20.30078125 113.6328125 C-30.921008 108.97699325 -37.20622695 102.93552104 -43.25 93.1875 C-44.57305955 89.6074565 -44.88326297 87.09380467 -44.3125 83.3125 C-39.4529993 79.26291608 -33.70226085 78.89706356 -27.58203125 78.96875 C-25.3125 79.3125 -25.3125 79.3125 -23.4375 81.4375 C-23.06625 82.38625 -22.695 83.335 -22.3125 84.3125 C-18.6058316 90.90213271 -13.96147981 93.8099789 -7.125 96.625 C2.18373029 98.30362349 11.42392863 98.41973605 19.6875 93.3125 C22.71348114 90.14242452 23.91353296 87.61271285 24.25 83.3125 C24.00928676 79.80878511 23.11259077 77.19967841 20.5859375 74.6171875 C13.55111205 69.78255437 3.85218671 68.92802468 -4.375 67.375 C-15.94088151 65.17608929 -28.16017475 62.02257513 -35.83984375 52.3984375 C-41.05487866 44.56832711 -42.22780641 36.58142569 -41.3125 27.3125 C-39.61785062 19.68150398 -36.41046014 13.3067075 -30.3125 8.3125 C-20.67816798 2.28768791 -11.25734706 -0.08101309 0 0 Z " fill="#1B1B1A" transform="translate(1512.3125,469.6875)"/>
<path d="M0 0 C0.82814209 0.00563965 1.65628418 0.0112793 2.50952148 0.01708984 C14.19743755 0.24709072 24.68805429 2.88628476 33.5 10.9765625 C37.89754574 15.79187509 41.46669965 21.22129506 41.9375 27.8125 C41.855 28.6375 41.7725 29.4625 41.6875 30.3125 C35.67492588 33.52852802 30.56221542 35.06246895 23.6875 34.3125 C21.5625 32.1875 21.5625 32.1875 19.6875 29.3125 C15.83090245 23.91326343 12.19714043 21.01399192 5.6875 19.3125 C-1.91849999 18.40015239 -9.0666984 18.45642919 -15.3125 23.3125 C-17.5883283 25.72625729 -18.26814056 27.18738336 -18.3984375 30.4921875 C-18.10651258 35.32209617 -18.10651258 35.32209617 -15.57788086 39.34912109 C-13.10587919 41.49157582 -11.50251556 42.14114908 -8.3515625 42.91015625 C-7.3812207 43.14879395 -6.41087891 43.38743164 -5.41113281 43.63330078 C0.88084113 45.01245864 7.20717988 46.19306759 13.546875 47.33007812 C24.10033593 49.33316131 34.89677041 52.73045413 41.484375 61.78125 C47.3651439 71.30249488 48.54665659 82.18148985 46.0390625 93.1484375 C42.17332881 102.56496829 34.76805609 109.07578706 25.6875 113.3125 C18.06854427 116.46722386 10.25671722 116.60552573 2.125 116.6875 C1.16762939 116.70151855 0.21025879 116.71553711 -0.77612305 116.72998047 C-13.35395432 116.64602062 -26.6839356 112.7700141 -36.1875 104.1875 C-40.28691454 99.66400809 -43.36380292 94.08001473 -45.3125 88.3125 C-45.04127102 85.121039 -44.83625691 83.83625691 -42.5625 81.5625 C-37.79888599 78.91604777 -31.67208929 78.46941854 -26.3125 79.3125 C-23.99315576 81.144407 -23.25144883 82.44623114 -22 85.1875 C-18.47841992 91.70894458 -13.2009716 94.30083241 -6.3828125 96.5859375 C1.90556049 98.54730821 10.09882544 98.24234933 17.6875 94.3125 C21.47228074 91.57457351 22.974441 89.39909416 23.75 84.875 C23.91247418 81.61468478 23.6153767 80.13047454 22.375 77 C14.80531321 69.43031321 2.27541762 68.62085111 -7.79296875 66.77734375 C-18.85956216 64.58821434 -30.45251919 60.86679082 -37.3125 51.3125 C-42.49406691 42.83638457 -42.2959004 33.30091985 -40.9453125 23.703125 C-38.96656455 16.05919458 -33.21395254 9.71166909 -26.59375 5.640625 C-18.01674843 1.54486582 -9.45671057 -0.06805487 0 0 Z " fill="#1B1B1A" transform="translate(893.3125,469.6875)"/>
<path d="M0 0 C10.04087539 8.45547402 16.4740917 18.8918253 17.9375 32.0625 C17.625 34.25 17.625 34.25 16.57421875 35.86328125 C13.61969284 37.96519848 10.61323147 37.68479825 7.125 37.625 C6.44824219 37.63660156 5.77148438 37.64820313 5.07421875 37.66015625 C2.27591028 37.64359821 0.1607394 37.59585708 -2.2265625 36.0546875 C-3.67299062 33.78172902 -4.43901946 31.56930119 -5.25 29 C-7.3354337 23.10942794 -9.0888396 18.20807485 -14.63671875 14.90234375 C-20.01621958 12.47209452 -24.70949871 11.21086043 -30.375 13.25 C-36.82184822 16.21294539 -40.58143512 19.92688006 -43.37890625 26.44140625 C-49.35975559 43.30505597 -49.70953306 62.38806726 -42.171875 78.8828125 C-39.26778484 83.86387853 -35.82690963 87.10577551 -30.5625 89.5625 C-24.28937955 90.91552598 -18.78617098 89.73719908 -13.375 86.25 C-8.43875017 81.67493918 -6.69189613 76.36596419 -4.48828125 70.078125 C-3.375 67.25 -3.375 67.25 -1.375 65.25 C1.31662425 65.02447762 3.87169744 64.9256671 6.5625 64.9375 C7.29146484 64.92138672 8.02042969 64.90527344 8.77148438 64.88867188 C14.04879516 64.88383474 14.04879516 64.88383474 16.62890625 66.5234375 C18.5841851 69.91258751 17.48320969 73.64234076 16.625 77.25 C12.46077016 90.20729368 5.19336943 99.87772613 -6.7265625 106.5703125 C-16.98137973 111.1103709 -30.35679955 110.83548887 -41 107.6875 C-52.21491832 103.21404583 -59.93605436 94.67058697 -65.125 83.9375 C-73.23428029 64.86468616 -73.68929566 42.54908522 -66.55859375 23.08984375 C-61.56888167 11.11782829 -54.91643316 1.5711248 -42.7578125 -3.8203125 C-29.09761163 -9.15003022 -12.2755539 -8.62351771 0 0 Z " fill="#1B1B1A" transform="translate(1337.375,476.75)"/>
<path d="M0 0 C0.76376953 -0.01611328 1.52753906 -0.03222656 2.31445312 -0.04882812 C3.42530273 -0.04979492 3.42530273 -0.04979492 4.55859375 -0.05078125 C5.56684204 -0.05525269 5.56684204 -0.05525269 6.59545898 -0.05981445 C9.34184695 0.46001199 10.51122754 1.3911409 12.5625 3.3125 C13.60686182 5.65960361 14.42883983 7.8386544 15.18798828 10.27490234 C15.4194455 10.97931961 15.65090271 11.68373688 15.88937378 12.40950012 C16.65006956 14.73517458 17.39137399 17.06655967 18.1328125 19.3984375 C18.65915335 21.01925187 19.18674948 22.6396591 19.71554565 24.25967407 C21.10433194 28.52501572 22.47699392 32.79537484 23.84606934 37.06707764 C25.50986522 42.24854789 27.19200575 47.42408366 28.87185478 52.60036659 C30.17916425 56.62970026 31.48360266 60.65988701 32.77932739 64.69296265 C33.01881104 65.4364949 33.25829468 66.18002716 33.5050354 66.9460907 C33.94978402 68.32728717 34.39321773 69.70890809 34.83502197 71.09104919 C35.95263006 74.55650567 37.16408404 77.95026147 38.5625 81.3125 C38.81670715 80.51229431 39.07091431 79.71208862 39.33282471 78.88763428 C41.7441816 71.29757127 44.15636008 63.70776996 46.5694313 56.1182518 C47.80958926 52.21764722 49.04944401 48.31694683 50.28857422 44.41601562 C51.48736419 40.64212085 52.68699187 36.86849325 53.88716888 33.09503937 C54.3418964 31.66485065 54.79633637 30.23457046 55.25046539 28.80419159 C56.29565271 25.51243954 57.34542395 22.22246707 58.40539551 18.9354248 C59.16501113 16.55704817 59.90426026 14.17205102 60.62097168 11.78039551 C60.95197876 10.70592163 61.28298584 9.63144775 61.62402344 8.52441406 C61.90389099 7.58631897 62.18375854 6.64822388 62.47210693 5.68170166 C63.75580114 2.89249607 64.91648405 1.83207778 67.5625 0.3125 C70.91015625 -0.0859375 70.91015625 -0.0859375 74.625 -0.0625 C76.46771484 -0.07410156 76.46771484 -0.07410156 78.34765625 -0.0859375 C81.5625 0.3125 81.5625 0.3125 83.55859375 1.3984375 C85.57444431 5.24188799 83.68701177 9.87573888 82.55371094 13.85112 C82.13895508 15.10125381 81.72419922 16.35138763 81.296875 17.6394043 C81.06734634 18.33672165 80.83781769 19.034039 80.60133362 19.75248718 C79.84389807 22.04909396 79.07819851 24.34285506 78.3125 26.63671875 C77.77443537 28.26339396 77.23692995 29.89025423 76.69995117 31.51728821 C75.28155254 35.81049791 73.85630943 40.10140317 72.42938232 44.39178467 C70.45574901 50.32991553 68.4913423 56.27110577 66.52587891 62.21194458 C65.43021436 65.52365173 64.33198795 68.83449347 63.23193359 72.14474487 C60.7187045 79.71699382 58.23420514 87.29546393 55.84765625 94.90869141 C55.63903458 95.57120942 55.4304129 96.23372744 55.21546936 96.91632175 C54.25351277 99.97219913 53.30056741 103.03023817 52.36450195 106.09416199 C52.03538818 107.14437027 51.70627441 108.19457855 51.3671875 109.27661133 C51.08858887 110.18373367 50.80999023 111.09085602 50.52294922 112.02546692 C49.51453338 114.42671869 48.58685044 115.69583011 46.5625 117.3125 C44.52539062 117.70068359 44.52539062 117.70068359 42.21875 117.7109375 C41.38472656 117.71480469 40.55070312 117.71867188 39.69140625 117.72265625 C38.82386719 117.71105469 37.95632813 117.69945312 37.0625 117.6875 C36.19496094 117.69910156 35.32742188 117.71070313 34.43359375 117.72265625 C33.59957031 117.71878906 32.76554687 117.71492187 31.90625 117.7109375 C30.76446289 117.70586182 30.76446289 117.70586182 29.59960938 117.70068359 C26.91889465 117.18985708 26.28668953 116.43064331 24.5625 114.3125 C23.32269287 111.44989014 23.32269287 111.44989014 22.09277344 107.90917969 C21.86549309 107.26198723 21.63821274 106.61479477 21.4040451 105.94799042 C20.65124622 103.79638693 19.91137868 101.64058086 19.171875 99.484375 C18.64171638 97.95796185 18.11100496 96.4317406 17.57977295 94.90570068 C15.89269077 90.04629334 14.22577 85.18010069 12.5625 80.3125 C12.29267303 79.52398651 12.02284607 78.73547302 11.74484253 77.92306519 C8.25914065 67.73335081 4.8162666 57.52972758 1.40332031 47.31542969 C0.05320904 43.27635724 -1.30815493 39.24116082 -2.67161179 35.2065773 C-3.7379457 32.04472467 -4.79627722 28.88023646 -5.8523941 25.71495819 C-6.35175775 24.22287659 -6.8540906 22.731785 -7.35958099 21.24176788 C-8.05651819 19.18507532 -8.74199718 17.12489581 -9.42480469 15.06347656 C-10.01004913 13.31868011 -10.01004913 13.31868011 -10.6071167 11.53863525 C-11.45121682 8.25920856 -11.82753762 5.67770474 -11.4375 2.3125 C-7.60791112 -0.24055926 -4.43695272 -0.01862701 0 0 Z " fill="#1B1B1A" transform="translate(1138.4375,468.6875)"/>
<path d="M0 0 C2.34753642 0.72522174 4.70030843 1.43362083 7.05688477 2.12890625 C8.33856679 2.52130295 9.61960653 2.9158029 10.90003967 3.31225586 C11.55841387 3.51591766 12.21678806 3.71957947 12.89511299 3.92941284 C13.57038977 4.1383316 14.24566654 4.34725037 14.94140625 4.5625 C16.35899318 4.99959647 17.77663238 5.43652345 19.19432068 5.87329102 C22.89800914 7.01477518 26.60106161 8.15830813 30.30395508 9.30236816 C35.51588555 10.91225805 40.72868123 12.51934457 45.94139099 14.12670898 C48.70745968 14.97964418 51.47328518 15.83336071 54.23890686 16.68774414 C61.15042638 18.82180083 68.06673074 20.93755533 75 23 C75 23.66 75 24.32 75 25 C71.89851013 25.84271545 68.79692694 26.68508693 65.6953125 27.52734375 C64.72109848 27.79191879 63.74688446 28.05649384 62.7431488 28.3290863 C57.34273819 29.79501304 51.94150248 31.25780518 46.53881836 32.71533203 C44.32926094 33.31151091 42.11970691 33.90770233 39.91015625 34.50390625 C38.80931198 34.80087402 37.70846771 35.0978418 36.57426453 35.40380859 C30.70865419 36.98871048 24.84840146 38.59056333 18.99597168 40.22346497 C15.89944712 41.08593475 12.79977679 41.9366762 9.69940186 42.78518677 C8.28882776 43.17452391 6.87979536 43.56949596 5.47247314 43.97042847 C3.52872858 44.52358678 1.57890353 45.05524204 -0.37109375 45.5859375 C-1.44286865 45.8854834 -2.51464355 46.1850293 -3.61889648 46.49365234 C-13.57093764 47.98405117 -23.64126798 44.16397729 -33.1796875 41.59765625 C-34.84104709 41.15506277 -36.50251752 40.71288514 -38.16409302 40.27110291 C-41.6297355 39.34808793 -45.09410863 38.42049128 -48.55761719 37.48950195 C-52.99738803 36.29643038 -57.43998781 35.11430967 -61.88355827 33.93547916 C-65.30754572 33.02597168 -68.73006998 32.11105771 -72.15216446 31.1944561 C-73.79041125 30.75628743 -75.42908967 30.31972928 -77.06820297 29.88481331 C-79.35279727 29.27769153 -81.63534232 28.66339942 -83.91748047 28.04711914 C-84.59386063 27.86886597 -85.27024078 27.69061279 -85.96711731 27.50695801 C-89.09514904 26.65435095 -91.26802663 25.82131558 -94 24 C-80.57600133 18.30817557 -66.53212977 14.15648618 -52.66088867 9.70678711 C-49.25850343 8.61348949 -45.86200719 7.5041285 -42.46948242 6.38061523 C-38.3423517 5.01402832 -34.20671756 3.67693761 -30.06355095 2.35980034 C-28.49793588 1.85678538 -26.93550903 1.34372268 -25.37668037 0.82005501 C-16.02948795 -2.31027923 -9.44915393 -3.76958973 0 0 Z " fill="#FF9F33" transform="translate(113,195)"/>
<path d="M0 0 C1.79205981 0.60037971 3.5843981 1.1999286 5.37695312 1.79882812 C6.84128784 2.31473511 6.84128784 2.31473511 8.33520508 2.84106445 C11.94420351 4.07866047 15.58093006 5.20677719 19.23242188 6.31054688 C20.24511517 6.61697994 20.24511517 6.61697994 21.27826691 6.92960358 C22.6750321 7.35222814 24.07181426 7.77479662 25.46861267 8.1973114 C29.02579415 9.27935884 32.57541608 10.38551611 36.125 11.4921875 C41.26450505 13.09452634 46.40571565 14.69093291 51.55035782 16.2767067 C54.42229118 17.16376235 57.29208176 18.05759344 60.16130829 18.95336151 C61.52731294 19.37853694 62.8941173 19.80115198 64.26172638 20.221138 C66.15099695 20.80200884 68.03702153 21.39340621 69.92285156 21.98535156 C71.52993988 22.48449066 71.52993988 22.48449066 73.16949463 22.99371338 C75.578125 23.953125 75.578125 23.953125 76.578125 25.953125 C75.93428864 26.12550186 75.29045227 26.29787872 74.62710571 26.47547913 C67.77820149 28.30920197 60.92936609 30.14318169 54.08056641 31.97729492 C51.54217686 32.65706434 49.00376093 33.33673495 46.46533203 34.01635742 C43.99956429 34.67653424 41.53388649 35.33704706 39.06829834 35.99789429 C36.59545331 36.65960737 34.12201946 37.31912384 31.64801025 37.97647095 C25.50719241 39.61172448 19.38237567 41.28525566 13.27636719 43.04638672 C11.52687271 43.54228554 11.52687271 43.54228554 9.74203491 44.04820251 C7.55543432 44.66959827 5.37260361 45.30449411 3.19473267 45.95582581 C-9.44440061 49.51346053 -20.19009393 45.90361755 -32.48046875 42.515625 C-34.11790537 42.07037361 -35.7555278 41.62580501 -37.39332581 41.18188477 C-41.67659102 40.01885302 -45.95715499 38.84616814 -50.23724365 37.67150879 C-54.60371493 36.47522921 -58.97293115 35.2890609 -63.34179688 34.1015625 C-69.71150915 32.36804797 -76.08059914 30.63228112 -82.44702148 28.88671875 C-83.11247986 28.7048703 -83.77793823 28.52302185 -84.46356201 28.33566284 C-87.14187754 27.5998931 -89.78605796 26.83173068 -92.421875 25.953125 C-92.421875 25.293125 -92.421875 24.633125 -92.421875 23.953125 C-83.96251733 21.30133575 -75.50313538 18.64962395 -67.04372406 15.99800587 C-63.11393605 14.76620401 -59.18415581 13.53437738 -55.25439453 12.30249023 C-51.44831748 11.10937623 -47.64221844 9.9163324 -43.83610535 8.72333336 C-42.39795682 8.27254322 -40.95981568 7.82172953 -39.52168274 7.37088966 C-38.83797104 7.1565547 -38.15425934 6.94221973 -37.4498291 6.72138977 C-36.4379421 6.4036077 -36.4379421 6.4036077 -35.40561295 6.07940578 C-34.07073668 5.66184306 -32.73493574 5.24722392 -31.39818954 4.83568668 C-27.96649992 3.77533317 -24.56764642 2.66120005 -21.18499756 1.45278931 C-13.59867474 -1.20546913 -7.77526434 -3.03478134 0 0 Z " fill="#FF9F33" transform="translate(340.421875,194.046875)"/>
<path d="M0 0 C1.55649765 0.47848892 1.55649765 0.47848892 3.1444397 0.96664429 C4.25515839 1.32876007 5.36587708 1.69087585 6.51025391 2.06396484 C7.68776215 2.43083405 8.86527039 2.79770325 10.07846069 3.1756897 C12.59475688 3.96036742 15.10822793 4.75109261 17.61950684 5.5513916 C22.07508449 6.96737084 26.54860197 8.32283579 31.02306747 9.67779922 C36.77095623 11.41925831 42.51063195 13.18649974 48.24902344 14.95898438 C50.86946315 15.76799037 53.49128162 16.57230358 56.11425781 17.37304688 C59.96248415 18.54786968 63.80679284 19.73503876 67.65087891 20.92333984 C68.82969635 21.28164886 70.00851379 21.63995789 71.22305298 22.00912476 C72.29703339 22.3435257 73.37101379 22.67792664 74.47753906 23.02246094 C75.42424469 23.31365814 76.37095032 23.60485535 77.34634399 23.90487671 C79.48681641 24.77490234 79.48681641 24.77490234 80.48681641 26.77490234 C69.82542706 29.67940517 59.15951424 32.56659792 48.48755741 35.43204594 C43.53177712 36.7632618 38.57772324 38.10029132 33.62719727 39.45092773 C28.84575993 40.75519757 24.06034106 42.04377498 19.27181816 43.32177544 C17.4495792 43.81101323 15.62882001 44.30579885 13.80964851 44.8063221 C11.25274339 45.50878661 8.69119067 46.19097616 6.12768555 46.86889648 C5.38393173 47.07820801 4.64017792 47.28751953 3.87388611 47.50317383 C-4.32519361 49.62273614 -11.68648018 47.94858826 -19.69506836 45.73364258 C-20.4571611 45.52867157 -21.21925385 45.32370056 -22.00444031 45.11251831 C-24.48957306 44.44246326 -26.97204831 43.7630823 -29.45458984 43.08349609 C-31.19034861 42.61351854 -32.92626745 42.14413182 -34.66233826 41.67530823 C-39.20617105 40.44656455 -43.74779998 39.20986322 -48.28900146 37.97143555 C-52.93337632 36.70640618 -57.5798117 35.44899288 -62.22607422 34.19091797 C-71.32379849 31.72632028 -80.41921045 29.25330244 -89.51318359 26.77490234 C-88.51318359 24.77490234 -88.51318359 24.77490234 -85.55477905 23.63671875 C-84.21708166 23.20873247 -82.87661452 22.78935139 -81.53417969 22.37646484 C-80.80400635 22.14529968 -80.07383301 21.91413452 -79.3215332 21.67596436 C-76.89547123 20.90993989 -74.46613781 20.15489122 -72.03662109 19.39990234 C-70.35067942 18.87010702 -68.66494177 18.33966202 -66.97940063 17.80859375 C-62.528996 16.40845011 -58.07571124 15.01768789 -53.62182617 13.62866211 C-50.00111182 12.49785581 -46.38240003 11.36072483 -42.76379967 10.22317505 C-35.2674572 7.86662095 -27.76974281 5.51442692 -20.26855469 3.17333984 C-19.58463654 2.95925476 -18.90071838 2.74516968 -18.19607544 2.52459717 C-16.30375607 1.93497976 -14.40851725 1.35475718 -12.51318359 0.77490234 C-11.31193848 0.37016693 -10.11069336 -0.03456848 -8.87304688 -0.4515686 C-5.2345501 -1.28924643 -3.51454897 -1.11721935 0 0 Z " fill="#FF9F33" transform="translate(222.51318359375,385.22509765625)"/>
<path d="M0 0 C1.83877968 0.57641487 1.83877968 0.57641487 3.71470642 1.16447449 C5.03325135 1.59034454 6.35173633 2.01640027 7.67016602 2.44262695 C9.05257087 2.88010221 10.43531433 3.31650873 11.81837463 3.75190735 C15.45312624 4.89903798 19.08347923 6.05949602 22.71295166 7.22320557 C26.35070529 8.38752371 29.99187497 9.54103573 33.63305664 10.69458008 C35.05807608 11.14608409 36.4830944 11.59759163 37.90811157 12.04910278 C38.6040807 12.26958408 39.30004982 12.49006538 40.01710892 12.71722794 C42.09018317 13.37458328 44.1627378 14.03355522 46.23519897 14.69284058 C55.61557712 17.67358544 65.01853205 20.55377713 74.48657227 23.2434082 C74.48657227 23.9034082 74.48657227 24.5634082 74.48657227 25.2434082 C71.3850824 26.08612366 68.28349807 26.92849094 65.18188477 27.77075195 C64.20771606 28.035327 63.23354736 28.29990204 62.2298584 28.57249451 C56.82873443 30.03866559 51.42673619 31.50150741 46.02319336 32.95874023 C43.81306142 33.55490108 41.60293773 34.15109253 39.39282227 34.74731445 C38.29177155 35.04428223 37.19072083 35.34125 36.05630493 35.6472168 C30.20005632 37.22965513 24.34982077 38.83078948 18.5083313 40.46687317 C15.42168219 41.32990974 12.33165376 42.18037056 9.24090576 43.02859497 C7.83702918 43.41746078 6.43482124 43.8124091 5.03448486 44.21383667 C3.09850467 44.76819443 1.15590175 45.29926244 -0.78686523 45.8293457 C-1.85340332 46.1288916 -2.91994141 46.4284375 -4.01879883 46.73706055 C-14.42022637 48.24415575 -24.62852144 44.56299949 -34.57202148 41.84106445 C-36.20949631 41.39834633 -37.84711799 40.95617105 -39.48487854 40.51451111 C-42.89771301 39.5923154 -46.30900936 38.66469363 -49.71923828 37.73291016 C-54.09031829 36.53890142 -58.46456304 35.35700428 -62.83994961 34.17888737 C-66.21336001 33.26945443 -69.58526449 32.35454196 -72.95671272 31.4378643 C-74.56986006 30.99979529 -76.18341846 30.56323709 -77.79739189 30.12822151 C-80.045978 29.52109711 -82.29248888 28.90682939 -84.53857422 28.29052734 C-85.20403259 28.11227417 -85.86949097 27.934021 -86.55511475 27.75036621 C-89.65274928 26.8924496 -91.80429805 26.04949466 -94.51342773 24.2434082 C-86.02101173 20.62592835 -77.29598778 17.82118283 -68.50561523 15.0402832 C-66.96965502 14.55275576 -65.43369515 14.06522726 -63.8977356 13.57769775 C-60.69650759 12.56290855 -57.49418863 11.55164327 -54.29125977 10.54223633 C-50.20174357 9.25255997 -46.11690197 7.94868429 -42.03295708 6.64149094 C-38.86968339 5.63174675 -35.70321642 4.63232546 -32.53580093 3.63565826 C-31.02842418 3.15943537 -29.5222364 2.67943078 -28.01733017 2.19545746 C-25.91106804 1.51918852 -23.8006749 0.85770496 -21.6887207 0.19946289 C-20.49310516 -0.17929993 -19.29748962 -0.55806274 -18.06564331 -0.94830322 C-11.69174455 -2.39865144 -6.26516652 -1.99596369 0 0 Z " fill="#FF9F33" transform="translate(685.513427734375,2.756591796875)"/>
<path d="M0 0 C0.71154236 0.22111954 1.42308472 0.44223907 2.15618896 0.6700592 C4.48997883 1.39782263 6.81909398 2.1394888 9.1484375 2.88134766 C10.78048188 3.39311537 12.41281111 3.90397546 14.04541016 4.41397095 C18.33293708 5.75585593 22.61667057 7.10946654 26.8996582 8.46575928 C31.24611411 9.84012829 35.59576317 11.20430643 39.9453125 12.56884766 C44.84048754 14.1046998 49.73536657 15.64139991 54.62744141 17.18710327 C55.37431213 17.42280533 56.12118286 17.65850739 56.89068604 17.90135193 C58.27207763 18.33743833 59.65324327 18.77424156 61.03411865 19.21195984 C65.17921932 20.5196412 69.3401286 21.7426127 73.5234375 22.92041016 C73.5234375 23.58041016 73.5234375 24.24041016 73.5234375 24.92041016 C65.63870816 27.13815545 57.74206539 29.31155623 49.84033203 31.46777344 C45.92325602 32.53666456 42.00802339 33.61211797 38.09326172 34.68945312 C32.18855917 36.31230553 26.27885097 37.91593308 20.36630249 39.50994873 C17.97742151 40.15686673 15.59005052 40.80938756 13.20425415 41.46759033 C9.7989264 42.40582097 6.3886253 43.32342858 2.9765625 44.23681641 C1.95557968 44.5228624 0.93459686 44.80890839 -0.11732483 45.10362244 C-12.36143413 48.32744647 -22.7484861 44.72186185 -34.65625 41.51806641 C-36.31760959 41.07547293 -37.97908002 40.63329529 -39.64065552 40.19151306 C-43.106298 39.26849809 -46.57067113 38.34090143 -50.03417969 37.40991211 C-54.47395053 36.21684053 -58.91655031 35.03471982 -63.36012077 33.85588932 C-66.78410822 32.94638184 -70.20663248 32.03146787 -73.62872696 31.11486626 C-75.26697375 30.67669759 -76.90565217 30.24013943 -78.54476547 29.80522346 C-80.82935977 29.19810169 -83.11190482 28.58380958 -85.39404297 27.9675293 C-86.07042313 27.78927612 -86.74680328 27.61102295 -87.44367981 27.42736816 C-90.57171154 26.57476111 -92.74458913 25.74172574 -95.4765625 23.92041016 C-87.39653512 20.48476843 -79.12724541 17.81865211 -70.74609375 15.22509766 C-69.34215795 14.78752732 -67.93832582 14.34962427 -66.53459167 13.91140747 C-62.86749735 12.7676985 -59.19888963 11.62892081 -55.52996826 10.49108887 C-52.54155704 9.56335058 -49.55428128 8.63198819 -46.56705189 7.7004528 C-42.98129825 6.58238519 -39.39500643 5.46604919 -35.80859375 4.35009766 C-35.1337324 4.14002956 -34.45887104 3.92996147 -33.76355934 3.71352768 C-31.83850996 3.11473415 -29.91303692 2.51730318 -27.98754883 1.91992188 C-26.89630203 1.58113007 -25.80505524 1.24233826 -24.68074036 0.89328003 C-23.09467232 0.41170944 -23.09467232 0.41170944 -21.4765625 -0.07958984 C-20.33164841 -0.45082977 -19.18673431 -0.8220697 -18.00712585 -1.20455933 C-11.51495303 -2.8136083 -6.26767769 -2.02545956 0 0 Z " fill="#FF9F33" transform="translate(457.4765625,3.07958984375)"/>
<path d="M0 0 C1.1446875 -0.02578125 2.289375 -0.0515625 3.46875 -0.078125 C6.5 0.25 6.5 0.25 8.37890625 1.296875 C10.11536434 4.32206331 9.97302384 7.35908815 9.9375 10.75 C9.9674707 11.76513672 9.9674707 11.76513672 9.99804688 12.80078125 C9.99495108 15.93991616 9.91943117 17.77765894 7.796875 20.16796875 C5.2244112 21.3798267 3.13564332 21.75696501 0.3125 22.0625 C-6.72398181 23.23524697 -11.86342482 25.85187576 -16.28515625 31.55078125 C-22.75176419 41.76706848 -23.92699216 50.79662269 -23.87109375 62.76953125 C-23.87779873 64.15957128 -23.88638205 65.54960339 -23.89674377 66.93962097 C-23.93657668 72.80177726 -23.93803673 78.66385374 -23.93579102 84.52612305 C-23.93573992 88.1287801 -23.95488756 91.73094828 -23.98512459 95.3334713 C-23.99592812 97.36341017 -23.98384173 99.39240923 -23.97129822 101.4223175 C-23.98133377 102.65427353 -23.99136932 103.88622955 -24.00170898 105.15551758 C-24.00154282 106.23867752 -24.00137665 107.32183746 -24.00120544 108.43782043 C-24.62370927 111.94746689 -25.67948213 113.12652641 -28.5 115.25 C-32.06640625 115.74609375 -32.06640625 115.74609375 -36.0625 115.6875 C-36.73474609 115.69458984 -37.40699219 115.70167969 -38.09960938 115.70898438 C-42.96462917 115.64617876 -42.96462917 115.64617876 -45.19121075 113.99849033 C-46.84460781 111.78961768 -46.87480884 110.5832308 -46.8742218 107.84056091 C-46.88123611 106.93901276 -46.88825043 106.0374646 -46.89547729 105.1085968 C-46.88783356 104.1219957 -46.88018982 103.13539459 -46.87231445 102.11889648 C-46.87596512 101.07803894 -46.87961578 100.0371814 -46.88337708 98.96478271 C-46.89149774 95.51672157 -46.87786045 92.06912809 -46.86328125 88.62109375 C-46.86276287 86.23120626 -46.86327972 83.84131834 -46.86479187 81.45143127 C-46.86470208 76.44029382 -46.8542581 71.42931703 -46.83618164 66.41821289 C-46.81348213 59.98274975 -46.81295191 53.54752124 -46.81969929 47.11202908 C-46.82303443 42.17680258 -46.81641796 37.24162995 -46.80657005 32.30641365 C-46.80271083 29.93285466 -46.80157281 27.55928968 -46.8031559 25.18572807 C-46.80352516 21.87427136 -46.79094567 18.56312 -46.7746582 15.25170898 C-46.77713562 14.26308365 -46.77961304 13.27445831 -46.78216553 12.25587463 C-46.77508072 11.3571463 -46.76799591 10.45841797 -46.76069641 9.53245544 C-46.75864354 8.74914069 -46.75659067 7.96582594 -46.75447559 7.15877438 C-46.5 5.25 -46.5 5.25 -44.5 3.25 C-41.97524284 3.05106201 -39.58485251 2.97152565 -37.0625 3 C-36.38123047 2.99226563 -35.69996094 2.98453125 -34.99804688 2.9765625 C-31.28590558 2.99110566 -29.66410628 3.14059582 -26.5 5.25 C-25.98828125 7.4140625 -25.98828125 7.4140625 -25.8125 9.875 C-25.71388672 11.10089844 -25.71388672 11.10089844 -25.61328125 12.3515625 C-25.57589844 12.97804688 -25.53851562 13.60453125 -25.5 14.25 C-25.0153125 13.64671875 -24.530625 13.0434375 -24.03125 12.421875 C-17.27566267 4.36713626 -10.77590822 0.14562038 0 0 Z " fill="#1B1B1A" transform="translate(1107.5,470.75)"/>
<path d="M0 0 C1.3096875 -0.00773437 2.619375 -0.01546875 3.96875 -0.0234375 C7.70647821 0.39829732 8.86727073 0.80932953 11.5 3.375 C12.00057125 5.50052643 12.00057125 5.50052643 12.00120544 8.00549316 C12.01595665 9.43137505 12.01595665 9.43137505 12.03100586 10.88606262 C12.02133789 11.92719711 12.01166992 12.9683316 12.00170898 14.04101562 C12.00711197 15.1387883 12.01251495 16.23656097 12.01808167 17.36759949 C12.03061559 21.00575506 12.01404611 24.64312649 11.99609375 28.28125 C11.99624863 30.80326377 11.99773575 33.32527778 12.00050354 35.84729004 C12.00188963 41.13675335 11.98972635 46.42593853 11.96655273 51.71533203 C11.93994244 57.83150557 11.93819557 63.94729978 11.9499411 70.06351137 C11.96071865 75.94591936 11.95443153 81.8282115 11.94038582 87.71061707 C11.9358605 90.21452942 11.93554389 92.71845294 11.93945122 95.22236633 C11.94235245 98.71814058 11.92590774 102.21328906 11.90405273 105.70898438 C11.90855438 106.75011887 11.91305603 107.79125336 11.91769409 108.86393738 C11.90778946 109.8145253 11.89788483 110.76511322 11.88768005 111.74450684 C11.88525016 112.57114586 11.88282026 113.39778488 11.88031673 114.24947357 C11.40237731 116.92059683 10.69089313 117.80117354 8.5 119.375 C5.57742357 119.6731028 2.91654217 119.79382117 0 119.75 C-0.77214844 119.76160156 -1.54429688 119.77320313 -2.33984375 119.78515625 C-7.96977812 119.75588449 -7.96977812 119.75588449 -10.21991062 118.13950348 C-11.86746011 115.86848487 -11.87946918 114.5378071 -11.88768005 111.74450684 C-11.902537 110.31862495 -11.902537 110.31862495 -11.91769409 108.86393738 C-11.91319244 107.82280289 -11.9086908 106.7816684 -11.90405273 105.70898438 C-11.91091599 104.6112117 -11.91777924 103.51343903 -11.92485046 102.38240051 C-11.94319054 98.7443864 -11.93927088 95.10680053 -11.93359375 91.46875 C-11.93815178 88.94673521 -11.94345622 86.42472168 -11.94947815 83.90270996 C-11.95842324 78.61330541 -11.95620263 73.32405781 -11.94604492 68.03466797 C-11.934559 61.91844286 -11.94864557 55.80265599 -11.9754414 49.68648863 C-12.00024907 43.80409272 -12.00278025 37.92183335 -11.99632454 32.03938293 C-11.99617077 29.53545909 -12.00226052 27.03152703 -12.01461601 24.52763367 C-12.02943586 21.03175917 -12.01891472 17.5368589 -12.00170898 14.04101562 C-12.01137695 12.99988113 -12.02104492 11.95874664 -12.03100586 10.88606262 C-12.02117172 9.9354747 -12.01133759 8.98488678 -12.00120544 8.00549316 C-12.00099616 7.17885414 -12.00078688 6.35221512 -12.00057125 5.50052643 C-11.5 3.375 -11.5 3.375 -9.68937778 1.61049652 C-6.45184505 -0.2164885 -3.68536259 -0.02176395 0 0 Z " fill="#1B1B1A" transform="translate(1242.5,467.625)"/>
<path d="M0 0 C3.32171393 2.65737114 4.91893538 4.79144339 5.5078125 9.0859375 C5.7014188 13.3839973 5.42357693 16.23063076 3.625 20.1875 C0.28771557 23.69592722 -2.90639024 25.66712615 -7.8671875 25.80859375 C-13.35324895 25.32209396 -17.01146193 23.79945711 -20.625 19.6875 C-22.38406617 15.33612578 -22.46505758 11.37722648 -21.8125 6.75 C-19.93627877 2.6223133 -18.44960408 1.12981205 -14.5625 -1.1875 C-9.13075347 -2.72649485 -5.24822723 -2.33254544 0 0 Z " fill="#1B1B1A" transform="translate(1250.8125,430.25)"/>
</svg>
